<?xml version="1.0" encoding="UTF-8" standalone="no"?>
<!-- Created with Inkscape (http://www.inkscape.org/) -->

<svg
   width="1024"
   height="1024"
   viewBox="0 0 270.93334 270.93334"
   version="1.1"
   id="svg5"
   xml:space="preserve"
   inkscape:version="1.2.1 (9c6d41e410, 2022-07-14)"
   sodipodi:docname="f1mh_icon_v2.svg"
   xmlns:inkscape="http://www.inkscape.org/namespaces/inkscape"
   xmlns:sodipodi="http://sodipodi.sourceforge.net/DTD/sodipodi-0.dtd"
   xmlns:xlink="http://www.w3.org/1999/xlink"
   xmlns="http://www.w3.org/2000/svg"
   xmlns:svg="http://www.w3.org/2000/svg"><sodipodi:namedview
     id="namedview7"
     pagecolor="#505050"
     bordercolor="#eeeeee"
     borderopacity="1"
     inkscape:showpageshadow="0"
     inkscape:pageopacity="0"
     inkscape:pagecheckerboard="0"
     inkscape:deskcolor="#505050"
     inkscape:document-units="px"
     showgrid="false"
     inkscape:zoom="0.63118804"
     inkscape:cx="416.67457"
     inkscape:cy="518.07066"
     inkscape:window-width="2560"
     inkscape:window-height="1387"
     inkscape:window-x="1912"
     inkscape:window-y="-8"
     inkscape:window-maximized="1"
     inkscape:current-layer="layer1"
     showguides="true"><sodipodi:guide
       position="107.2994,351.25969"
       orientation="0,-1"
       id="guide396"
       inkscape:locked="false" /></sodipodi:namedview><defs
     id="defs2"><linearGradient
       inkscape:collect="always"
       id="linearGradient7555"><stop
         style="stop-color:#550000;stop-opacity:1"
         offset="0"
         id="stop7551" /><stop
         style="stop-color:#000000;stop-opacity:0.42763156;"
         offset="1"
         id="stop7553" /></linearGradient><linearGradient
       inkscape:collect="always"
       id="linearGradient7547"><stop
         style="stop-color:#2b0000;stop-opacity:0.64473689;"
         offset="0"
         id="stop7543" /><stop
         style="stop-color:#000000;stop-opacity:0.32236844;"
         offset="1"
         id="stop7545" /></linearGradient><linearGradient
       inkscape:collect="always"
       id="linearGradient6402"><stop
         style="stop-color:#550000;stop-opacity:1"
         offset="0"
         id="stop6398" /><stop
         style="stop-color:#800000;stop-opacity:1"
         offset="1"
         id="stop6400" /></linearGradient><linearGradient
       inkscape:collect="always"
       xlink:href="#linearGradient6402"
       id="linearGradient1111"
       x1="32.20509"
       y1="104.28127"
       x2="76.388268"
       y2="89.866699"
       gradientUnits="userSpaceOnUse" /><clipPath
       clipPathUnits="userSpaceOnUse"
       id="clipPath1909"><path
         id="path1911"
         style="fill:#ff0000;fill-opacity:1;fill-rule:nonzero;stroke:none;stroke-width:0.239887"
         d="M 100.77449,-6.0190597e-4 0.00290383,-5.4370069e-4 V 30.000588 H 100.77422 V 11.552829 c -0.11057,0.114604 -0.22156,0.229181 -0.34065,0.341728 -0.0187,0.01767 -0.0557,0.02938 -0.0837,0.044 -0.0606,0.06063 -0.12138,0.121037 -0.18192,0.181661 -0.500149,0.546887 -0.924167,1.109311 -1.477405,1.64531 -0.202835,0.196519 -0.420409,0.372743 -0.648566,0.530839 -0.332885,0.351696 -0.552769,0.465082 -0.705296,0.414776 -0.172763,0.0856 -0.349248,0.162247 -0.527744,0.230496 -0.322411,0.227344 -0.620055,0.445713 -0.929484,0.670242 0.228895,0.147278 0.465998,0.292342 0.704749,0.43707 0.04194,0.0097 0.08133,0.02092 0.118095,0.03364 0.669721,-0.123807 1.346127,-0.242263 1.998337,-0.381192 2.567494,-0.546894 1.651814,0.110202 0.07882,0.984788 0.661982,0.09214 1.324364,0.182507 1.991514,0.26088 -0.025,0.10649 -0.0534,0.213009 -0.0802,0.319434 0.0367,0.02678 0.0173,0.0672 -0.0278,0.113502 -0.0444,0.172 -0.0914,0.343894 -0.14046,0.515647 0.0665,-0.01294 0.13192,-0.02697 0.19883,-0.03946 0.17588,-0.03286 -0.16982,0.161964 -0.22338,0.248307 -0.026,0.04184 -0.0489,0.0841 -0.0739,0.126075 -0.30802,1.017551 -0.692152,2.030398 -1.134032,3.036084 -0.04972,0.113162 0.0577,0.364346 -0.177824,0.336256 -0.599963,-0.07161 -1.19028,-0.158066 -1.774966,-0.253487 -0.02517,0.0314 -0.05102,0.06271 -0.07609,0.09412 -0.395726,-0.05178 -0.795473,-0.09863 -1.195675,-0.144234 -0.347972,0.265095 -0.606334,0.558241 -0.923484,0.83188 -0.244397,0.205373 -0.467078,0.417082 -0.733387,0.616169 -0.26916,0.201245 -0.903219,0.567898 -1.23495,0.759764 -0.464761,0.268813 -0.934814,0.535573 -1.406226,0.801788 -0.0437,0.04157 -0.08683,0.08318 -0.130367,0.124793 -0.229813,0.185268 -0.437182,0.377418 -0.690023,0.555752 -0.09513,0.06709 -0.294934,0.179973 -0.507561,0.296559 0.077,-0.01009 0.159314,-0.01837 0.240008,-0.02707 0.154188,-0.01661 0.430846,-0.04171 0.598382,-0.05722 0.150274,0.02028 0.31211,0.03779 0.474834,0.05506 0.05042,-0.0011 0.102495,-0.0019 0.156004,-0.0024 0.087,-8.11e-4 0.17401,-0.0016 0.261009,-0.0024 0.350618,-3.81e-4 0.533514,-0.0038 0.622655,0.01211 1.210121,-0.0094 2.418919,-0.02792 3.630117,-0.02701 0.09446,6e-5 0.18888,2.68e-4 0.283373,5.81e-4 0.711119,0.0024 0.898447,0.0072 1.516958,0.01793 0.07228,0.0019 0.144543,0.0037 0.216824,0.0056 1.921761,0.04962 1.676801,0.467972 -0.242462,0.414135 -0.04504,-0.0013 -0.08993,-0.0025 -0.135004,-0.0038 -0.545888,-0.0098 -0.711787,-0.01416 -1.347862,-0.01653 -1.285741,-0.0048 -2.568441,0.0164 -3.852668,0.02631 -0.256868,0.03197 -0.609971,0.05153 -1.054397,0.04872 -0.129595,-8.19e-4 -0.259048,-0.0028 -0.38865,-0.0032 -0.03913,0.0041 -0.07902,0.0079 -0.119731,0.01158 -0.315084,0.01207 -0.684927,0.03587 -0.995759,0.02037 -0.03514,0.0025 -0.06216,0.0017 -0.08209,-0.0052 -0.04515,-0.0035 -0.08876,-0.0079 -0.130368,-0.01356 -0.01799,0.0026 -0.04547,0.0021 -0.06736,0.0034 -0.01347,7.69e-4 -0.02402,0.0014 -0.03491,0.002 -1.4e-4,6e-5 -6.99e-4,6e-5 -8.38e-4,1.2e-4 -0.02017,0.0065 -0.05318,0.01207 -0.099,0.01577 l -2.79e-4,5.9e-5 c -0.0072,8.97e-4 -0.01556,0.0013 -0.02318,0.002 -0.0019,1.79e-4 -0.0038,3.52e-4 -0.0057,5.25e-4 -0.01392,0.0041 -0.0287,0.008 -0.04746,0.011 -0.04109,0.0066 -0.08731,0.01747 -0.137186,0.0149 -0.0582,-0.003 -0.109028,-0.01084 -0.153549,-0.02002 -0.337819,0.172401 -0.679084,0.343297 -1.033398,0.50715 -0.06439,0.03772 -0.126965,0.07589 -0.192007,0.113384 -0.518887,0.299075 -0.907386,0.523363 -1.614869,0.765003 -0.385522,0.131679 -0.831252,0.217994 -1.246676,0.327118 -0.544081,0.08739 -1.075954,0.194554 -1.632325,0.262159 -0.602819,0.07325 -1.219797,0.117822 -1.835786,0.159426 -0.492473,0.03327 -0.930152,0.05655 -1.354135,0.07637 -0.276155,0.06438 -0.55858,0.122589 -0.852027,0.17066 -0.271963,0.04456 -0.556262,0.06924 -0.834571,0.103782 -1.056139,0.08814 -2.103459,0.01545 -3.150648,-0.05308 -0.16207,-0.01058 -0.328497,-0.01163 -0.486833,-0.03126 -0.393935,-0.04886 -0.776612,-0.115757 -1.165128,-0.173627 0.482018,-1.071454 0.46368,-2.223682 1.44632,-3.214546 0.06526,-0.06581 0.175653,-0.0996 0.3131,-0.114491 0.114285,-0.380081 0.266027,-0.758295 0.612293,-1.108533 -0.05575,0.280614 -0.006,-0.01916 0.453559,-0.560291 0.07341,-0.08643 0.198889,-0.15236 0.291555,-0.232127 0.07332,-0.06312 0.138628,-0.128395 0.211098,-0.191729 0.07482,-0.0654 0.153842,-0.129787 0.230735,-0.194641 0.24011,-0.165805 0.460046,-0.338228 0.71975,-0.497197 0.138773,-0.08494 0.314691,-0.154771 0.471833,-0.232125 0.01484,0 0.03404,0.0037 0.04418,-0.0013 0.28765,-0.149222 0.548463,-0.312278 0.829934,-0.464252 -0.01001,0.0167 -0.05768,0.06145 -0.03,0.05012 0.04729,-0.01932 0.06646,-0.05026 0.09519,-0.0766 0.08914,-0.0821 0.164893,-0.167562 0.258007,-0.248656 0.103922,-0.0905 0.215657,-0.178932 0.332739,-0.265711 0.08571,-0.06353 0.225629,-0.243297 0.287737,-0.224733 0.07385,-0.07842 0.180144,-0.168628 0.335465,-0.292719 -0.08861,0.01735 -0.190981,0.04808 -0.310374,0.09546 -0.110279,0.04377 -0.201745,0.0899 -0.330828,0.131255 -0.03598,0.01153 0.03051,-0.02695 0.04718,-0.04034 0.01713,-0.01377 0.0366,-0.02737 0.05455,-0.04109 0.01299,-0.0099 0.02546,-0.01983 0.03818,-0.02974 0.04934,-0.04657 0.06379,-0.09402 0.102004,-0.141091 0.04565,-0.0562 0.120672,-0.111491 0.161733,-0.167924 0.113846,-0.120643 0.213684,-0.242333 0.382103,-0.360179 0.01991,-0.01203 0.122808,-0.07572 0.154369,-0.08882 0.01124,-0.0047 -0.0118,0.01028 -0.01336,0.01554 -2.8e-4,9.8e-4 0.0081,0.0034 0.0084,0.0024 0.03614,-0.04462 0.02996,-0.09058 0.07418,-0.134922 0.04219,-0.04631 0.08578,-0.09554 0.132278,-0.141673 0.05371,-0.05332 0.129296,-0.103543 0.144549,-0.158495 0.117378,-0.128588 0.215748,-0.257942 0.338465,-0.386314 0.02445,-0.0223 0.04703,-0.04473 0.07337,-0.06694 0.07732,-0.06526 0.189077,-0.128659 0.231826,-0.195688 0.03502,-0.0278 0.06706,-0.05579 0.105003,-0.08341 0.004,-0.0028 -0.0014,0.0059 -0.0025,0.0089 0.0092,-0.0068 0.01831,-0.01354 0.02755,-0.02031 0.03453,-0.03401 0.05348,-0.06865 0.08509,-0.102792 0.0081,-0.0088 0.02053,-0.01739 0.03082,-0.02608 0.03985,-0.04559 -0.0067,0.01063 0.04418,-0.07299 0.0401,-0.06588 0.110012,-0.130552 0.184097,-0.194991 0.103665,-0.08877 0.22884,-0.176379 0.353738,-0.263906 0.0457,-0.02835 0.110495,-0.06905 0.158733,-0.09662 0.01552,-0.0089 0.03662,-0.01733 0.05018,-0.02637 0.07442,-0.04962 0.123279,-0.100545 0.240826,-0.146679 0.01828,-0.01788 0.03495,-0.03589 0.05645,-0.05361 0.0064,-0.0053 0.02323,-0.0099 0.02946,-0.01525 0.03808,-0.03256 0.05525,-0.06423 0.07773,-0.09738 0.0083,-0.01441 0.01199,-0.02899 0.02482,-0.04325 0.0022,-0.0024 0.0071,0.0097 0.0076,0.0072 0.0046,-0.01857 4.19e-4,-0.03718 0.0046,-0.05576 0.005,-0.02258 0.03,-0.08828 0.04773,-0.111988 0.0019,-0.0025 0.0116,-0.0045 0.01745,-0.0067 -0.004,-0.02385 -0.01338,-0.04767 -0.01391,-0.07153 -0.0019,-0.06896 0.05957,-0.136663 0.102002,-0.204769 0.07829,-0.06734 0.08785,-0.08584 0.22119,-0.152849 0.03429,-0.01723 0.0793,-0.03337 0.122186,-0.04971 0.07268,-0.07501 0.18264,-0.147082 0.254735,-0.222638 0.0351,-0.02925 0.06622,-0.05869 0.105276,-0.08772 0.0011,-8.55e-4 0.0099,0.0021 0.01091,0.0012 0.025,-0.01655 0.03006,-0.05939 0.05755,-0.06467 -1.4e-4,-3e-5 0.0015,-0.002 0.0011,-0.0017 0.04328,-0.02763 4.19e-4,0.002 0.02891,-0.06694 0.0065,-0.01587 0.01836,-0.03162 0.02755,-0.04744 0.0033,-0.0014 0.0084,-0.0026 0.0096,-0.0041 0.05649,-0.102443 -0.002,-0.02871 0.054,-0.09412 0.0933,0.0103 9.77e-4,7.33e-4 0.03791,-0.0603 0.0052,-0.0087 0.01039,-0.03167 0.02018,-0.03161 0.0042,-0.02441 0.0096,-0.05038 0.0085,-0.03696 0.009,-0.01506 0.01693,-0.03015 0.02727,-0.04517 0.0053,-0.0077 -0.0045,-0.02874 0.01964,-0.02293 5.59e-4,1.2e-4 8.38e-4,3.79e-4 0.0014,5.25e-4 -4.1e-5,-0.0011 -9.77e-4,-0.0022 -8.37e-4,-0.0034 0.01213,-0.07032 0.0044,-0.05829 0.04773,-0.10058 6.98e-4,7.69e-4 8.38e-4,0.0015 0.0014,0.0022 0.0026,-0.01066 0.008,-0.02615 0.01964,-0.04878 0.01225,-0.02384 0.03277,-0.04744 0.05182,-0.07107 0.0045,-0.0056 -0.0129,0.02267 -0.0082,0.01705 0.01584,-0.01885 0.0279,-0.03783 0.04173,-0.05675 0.123314,-0.08704 0.06318,-0.05553 0.203187,-0.122756 0.03205,-0.01539 0.06121,-0.03107 0.09737,-0.04604 0.01234,-0.0051 0.03896,-0.0085 0.04746,-0.01397 0.01494,-0.0096 0.0226,-0.01962 0.03027,-0.02963 2.79e-4,-0.07006 0.07238,-0.100061 0.200733,-0.165479 0.0013,-7e-4 -2.79e-4,0.0029 0.0014,0.0023 0.02527,-0.01139 0.04782,-0.02306 0.07118,-0.03463 -0.04093,-0.0072 -0.01998,-0.02343 -0.01691,-0.03504 0.0047,-0.01786 0.02962,-0.03524 0.04446,-0.05285 0.02942,-0.03496 0.07578,-0.04986 0.132548,-0.05163 0.01028,-0.0082 0.02138,-0.01805 0.03109,-0.02462 -0.560882,-0.287971 -0.03749,-0.504389 0.757661,-0.520595 0.0019,-0.0018 0.0049,-0.0035 0.0065,-0.0053 0.01541,-0.0013 0.05419,-10e-4 0.04636,-0.0038 -0.01578,-0.0063 -0.07062,-0.0049 -0.08455,-0.01141 -0.0083,-0.0039 0.04031,-0.0056 0.03873,-0.0098 -0.0013,-0.0037 -0.04022,-0.0026 -0.04391,-0.0062 -0.01632,-0.01713 0.01236,-0.01547 0.03382,-0.01222 -0.01551,-0.0033 -0.0398,-0.0088 -0.08537,-0.02002 0.01936,-0.005 0.04442,-0.0092 0.05809,-0.01496 0.0305,-0.01288 -0.0299,-0.01458 -0.03818,-0.02677 -0.0052,-0.0077 0.01183,-0.01531 0.015,-0.02305 0.02085,-0.05425 -0.05629,0.02434 0.07009,-0.07468 -0.02072,-4.41e-4 -0.03777,-0.0019 -0.03027,-0.0045 0.0059,-0.0021 0.01623,-0.003 0.02809,-0.0036 v -6e-5 c -0.04814,-0.01589 0.05138,-0.01186 0.07828,-0.0076 0.01651,-0.02262 0.024,-0.0456 0.03627,-0.06833 0.0082,-0.009 0.01543,-0.01333 0.02182,-0.01484 -0.0059,-0.0086 -0.01268,-0.01949 -0.02073,-0.03428 -0.0024,-0.0045 0.0082,0.01576 0.02264,0.01251 0.08397,-0.01905 0.05178,-0.0274 0.02291,-0.04464 0.205085,0.01246 0.176555,0.01811 0.230462,-0.07602 -0.08352,-0.02443 -0.105478,-0.0045 -0.105005,0.01769 0.0099,6.44e-4 0.01964,7.3e-4 0.02755,-1.19e-4 -0.0019,-0.0061 -0.0024,-0.01229 0.0019,-0.01834 0.02255,0.01117 0.01472,0.01661 -0.0019,0.01834 0.0036,0.0116 0.01163,0.02327 8.38e-4,0.03458 -0.0084,0.0086 -0.02792,-0.01395 -0.02836,-0.03446 -0.0248,-0.0016 -0.0491,-0.007 -0.03845,-0.0131 0.08,-0.0456 0.165952,-0.07087 0.276008,-0.104247 -0.280426,0.0621 -0.08676,0.02429 -0.07146,0.0048 0.006,-0.0077 -0.08249,0.0188 -0.07828,0.0066 0.0069,-0.02092 0.03982,-0.0411 0.05973,-0.06164 -0.0069,-3.99e-4 -0.01162,-0.0012 -0.01119,-0.0026 -0.0085,-0.0024 -0.006,-0.004 0.0019,-0.0048 0.0019,-0.0055 0.0036,-0.01074 0.0057,-0.01519 -0.07224,0.0028 -0.06803,-0.0083 0.06518,-0.04587 -0.03713,0.01138 -0.05368,0.02148 -0.06518,0.04587 0.04693,-0.0018 0.130356,-0.0098 0.22528,-0.0195 0.0015,-0.0017 0.0029,-0.0034 0.0049,-0.0052 -0.0088,-0.02118 -0.0034,-0.04488 0.01991,-0.07084 -4.18e-4,-0.01218 -0.0059,-0.02027 -0.02536,-0.05919 -0.0092,-0.01836 -0.01446,-0.03688 -0.02946,-0.05506 -0.0076,-0.0028 -0.01531,-0.0055 -0.02291,-0.0083 -5.59e-4,7.22e-4 6.98e-4,0.0028 -8.38e-4,0.0022 -0.0096,-0.0039 -0.01586,-0.0081 -0.02373,-0.01211 0.150953,-9e-5 0.05846,-0.0298 2.79e-4,-0.05663 -9.77e-4,2.8e-5 -0.0023,2.9e-5 -0.0044,-2.98e-4 -0.02364,-0.0031 -0.02637,-0.01052 -0.03355,-0.01624 -0.01884,-0.01504 -0.02918,-0.03066 -0.04391,-0.04593 0.0063,-0.02783 0.01525,-0.05553 0.01473,-0.08341 0,-0.0041 -0.0053,-0.0081 -0.0011,-0.01211 0.02458,-0.0217 0.05753,-0.043 0.087,-0.06443 0.0013,-2.69e-4 0.0021,-4.42e-4 0.0041,-9.9e-4 0.0219,-0.006 0.04348,-0.01187 0.06464,-0.01793 -0.0253,0.0118 -0.0434,0.02098 -0.02645,0.01362 0.0132,-0.0057 0.02607,-0.01164 0.039,-0.0174 -0.0041,0.0012 -0.0084,0.0023 -0.01255,0.0036 0.02098,-0.0098 0.04688,-0.02128 0.06355,-0.02707 0.0013,-4.32e-4 0.0032,-10e-4 0.0049,-0.0015 -0.01848,0.0083 -0.03724,0.01666 -0.05591,0.02497 0.04261,-0.01241 0.08357,-0.02497 0.120821,-0.03813 0.005,-0.0017 0.0017,-0.0015 -0.0049,-4.08e-4 0.05034,-0.01148 0.114955,-0.02644 0.202097,-0.04691 0.01879,-0.0044 -0.0071,6e-5 -0.04118,0.0059 -0.02681,0.0083 -0.02933,0.0081 -0.01855,0.0032 -0.02393,0.0041 -0.04835,0.0082 -0.06382,0.01048 -0.0058,8.23e-4 0.0059,-0.0027 0.01118,-0.0037 0.02107,-0.0041 0.0426,-0.008 0.06437,-0.01193 0.04189,-0.01765 0.14115,-0.0559 0.110186,-0.05011 0.0075,-0.0028 0.01524,-0.0056 0.02291,-0.0084 0.0059,-0.01164 0.02486,-0.023 0.03709,-0.03446 0.01524,-0.01424 0.03378,-0.02134 0.01473,-0.01374 0.03077,-0.0155 0.05135,-0.02613 0.06764,-0.03469 l -8.38e-4,-1.79e-4 c -0.05667,0.02249 -0.03568,0.01109 -0.0074,-0.0023 -0.02618,-0.01028 0.01025,-0.02828 0.142913,-0.05844 0.0066,-0.0015 0.02281,-0.006 0.02346,-0.0056 8.9e-5,5.9e-5 1.39e-4,1.49e-4 -5.59e-4,4.08e-4 -0.07666,0.03268 -0.123828,0.05215 -0.15355,0.06403 -0.0013,6.65e-4 -0.0028,0.0014 -0.0041,0.0022 0.02803,0.0068 0.09235,0.0092 0.174823,0.0094 -0.0197,-0.0033 -0.03959,-0.0066 -0.06,-0.0096 0.002,-0.0064 6.98e-4,-0.0128 0.0055,-0.01909 0.02725,-0.03537 0.106592,-0.07206 0.172642,-0.105004 0.0026,-0.0022 0.0042,-0.0046 0.0079,-0.0068 0.01717,-0.01036 0.03996,-0.02027 0.05564,-0.03073 0.01109,-0.0074 0.01572,-0.0199 0.021,-0.02736 0.03945,-0.03485 0.0073,-0.01133 0.07473,-0.04773 0.0069,-0.0038 0.0083,-0.0083 0.01201,-0.01222 0.0033,-0.0036 0.0067,-0.0072 0.01036,-0.01083 7e-6,-0.0017 -5.58e-4,-0.0033 5.59e-4,-0.005 0.0061,-0.01305 0.0093,-0.01207 0.01145,-0.02311 0.0011,-0.0058 -0.0014,-0.01174 -0.003,-0.01758 0.02,-0.06137 -0.0029,0.0037 0.01391,-0.03574 0.0045,-0.01044 0.0077,-0.0211 0.01964,-0.03132 0.0064,-0.0055 0.01398,-0.01092 0.021,-0.01636 -0.0024,0.0012 -0.0076,0.0048 -0.0071,0.0036 0.0015,-0.004 0.0075,-0.0078 0.0101,-0.01182 0.0016,-0.0017 0.0011,-0.0034 0.0022,-0.0051 0.005,-0.0065 0.0093,-0.01302 0.01745,-0.01938 0.0068,-0.0053 0.0147,-0.0106 0.02209,-0.01589 0.01916,-0.0089 0.0212,-0.01849 0.03136,-0.02782 0.01626,-0.01507 0.02004,-0.0089 0.01582,-0.01484 0.02855,-0.03489 -0.01909,0.02222 0.02482,-0.02544 0.0014,-0.0014 5.58e-4,-0.0029 0.0016,-0.0044 0.0024,-0.0043 0.005,-0.0086 0.0082,-0.01286 0.01278,-0.01681 0.01429,-0.01698 0.03218,-0.03353 0.03934,-0.02356 0.04804,-0.04865 0.07855,-0.0727 0.01029,-0.0081 0.02325,-0.01607 0.03491,-0.0241 0.02743,-0.02268 0.05912,-0.04529 0.09628,-0.06734 0.02358,-0.01399 0.05733,-0.02717 0.06546,-0.04208 0.02623,-0.01735 0.02222,-0.03557 0.03573,-0.05338 0.0046,-0.0061 0.01127,-0.01206 0.01691,-0.0181 0.0011,-0.0026 0.0017,-0.0052 0.0038,-0.0077 0.02358,-0.02825 0.05856,-0.05601 0.08564,-0.08411 0.01622,-0.01881 0.03124,-0.0378 0.05346,-0.05634 0.0092,-0.0077 0.02122,-0.01518 0.03109,-0.02282 0.01837,-0.01421 0.01643,-0.01387 0.02809,-0.02782 0.01349,-0.02164 0.03397,-0.04322 0.05809,-0.06443 0.01056,-0.0093 0.02366,-0.01841 0.03464,-0.02765 0.0189,-0.01596 0.02726,-0.02525 0.04336,-0.0415 0.02809,-0.03246 0.06575,-0.06447 0.09819,-0.09674 0.002,-0.002 0.0032,-0.0033 0.0049,-0.0051 -0.14922,-0.03218 -0.21229,-0.09477 -0.06846,-0.174851 0.01906,-0.01062 0.05798,-0.03035 0.06764,-0.04243 5.59e-4,-7.87e-4 -0.0098,-2.98e-4 -0.0098,-9.89e-4 5.59e-4,-0.0066 0.0059,-0.01319 0.01119,-0.01973 0.01884,-0.02422 0.02266,-0.02391 0.05755,-0.04744 -0.01183,-0.0031 -0.0032,-5.81e-4 0.0065,-0.01019 0.0063,-0.0063 0.01574,-0.01241 0.02045,-0.01874 0.0016,-0.0025 -0.0022,-0.0051 -0.0016,-0.0077 0.0068,-0.02193 0.01617,-0.03204 0.03164,-0.05419 0.0053,-0.02042 0.03907,-0.03752 0.05891,-0.05605 0.0028,-0.0026 -0.01347,0.01021 -0.01308,0.0075 6.98e-4,-0.0063 0.0097,-0.01233 0.01446,-0.01851 0.0094,-0.03373 0.07548,-0.06485 0.109366,-0.09749 0.006,-0.006 0.01077,-0.01201 0.018,-0.01793 0.061,-0.05003 0.01356,-0.0071 0.08428,-0.0564 0.03621,-0.02525 0.05379,-0.05356 0.07309,-0.07957 0.03901,-0.05857 0.106287,-0.116101 0.14946,-0.174502 0.02308,-0.03124 0.0383,-0.06272 0.05809,-0.09406 0.02732,-0.05802 0.09144,-0.115401 0.184915,-0.170194 0.03051,-0.01788 0.05412,-0.02973 0.081,-0.04243 0.02627,0.0093 0.135897,0.0058 0.274373,-0.0013 0.0829,-0.204287 0.180567,-0.406789 0.358647,-0.5963788 0.271569,-0.4148116 0.524066,-0.8323609 0.808117,-1.245318 0.241675,-0.3850054 0.486102,-0.7715324 0.907119,-1.1227942 0.02305,-0.019216 -0.06544,0.082719 -0.04418,0.063037 0.141781,-0.1313655 0.270773,-0.2657545 0.406103,-0.398653 0.253624,-0.143951 -0.02138,0.01713 0.472652,-0.3827628 0.02854,-0.023118 0.06899,-0.042395 0.100367,-0.064667 0.539213,-0.3827223 0.400251,-0.2828986 0.40283,-0.2841619 -0.0017,0.00116 0.01458,-0.01087 0.01336,-0.010012 -0.01912,0.012878 0.01237,-0.010557 0.210553,-0.1532565 0.194771,-0.1370028 0.378498,-0.2775022 0.583928,-0.4109345 0.09331,-0.060607 0.206889,-0.1136334 0.310374,-0.1703692 0.02719,-0.00712 0.06254,-0.00967 0.08155,-0.021361 0.319983,-0.1966516 0.481704,-0.444898 0.773207,-0.6491717 -0.0099,0.015742 -0.02514,0.030909 -0.02973,0.047205 -0.0017,0.00594 0.0153,-0.00946 0.021,-0.014843 0.124328,-0.1193445 0.2256,-0.2449178 0.364103,-0.3604698 0.03299,-0.034844 0.07677,-0.067753 0.126822,-0.09895 -0.005,-0.0049 0.0063,-0.011037 0.02646,-0.018102 2.79e-4,-3.308e-4 9.77e-4,-6.586e-4 0.0014,-9.894e-4 -1.194149,-0.1580775 -0.09772,-0.6172713 0.94285,-1.0180233 0.0052,-0.00318 0.01028,-0.00636 0.01555,-0.00955 0.0084,-0.017939 -0.0074,-0.037582 0.03327,-0.053258 0.0074,-0.00285 0.01432,-0.00535 0.02127,-0.00792 0.01054,-0.067764 0.02457,-0.1352942 0.04909,-0.2019167 0.132834,-0.3610941 0.611724,-0.6593859 1.195949,-0.9141256 -0.123247,-0.00572 -0.247294,-0.014995 -0.370104,-0.018801 0.01,-0.013833 0.01693,-0.024114 0.02264,-0.032886 -0.04299,-0.00526 -0.01922,-0.015785 0.01745,-0.027415 0.0067,-0.010139 0.01204,-0.015102 0.02782,-0.024796 -0.01741,-0.00236 -0.0343,-0.00493 -0.05073,-0.00762 -0.0364,-0.00602 0.01483,-0.015192 0.05918,-0.024272 0.06715,-0.025978 0.134791,-0.051892 0.200187,-0.078054 -0.0039,-8.068e-4 -0.0078,-0.00159 -0.01173,-0.00239 0.02232,-0.00639 0.04367,-0.012957 0.06546,-0.019441 0.02012,-0.00832 0.03987,-0.016672 0.05918,-0.025087 0.04038,-0.023879 0.08069,-0.047781 0.121912,-0.071593 0.03067,-0.017709 0.0065,-0.052243 0.09491,-0.052851 0.0347,-2.354e-4 0.06885,3.618e-4 0.10255,0.00151 0.02632,-0.012706 0.06121,-0.02315 0.120275,-0.02724 0.02451,-0.0017 0.04926,-0.00297 0.07419,-0.00384 6.98e-4,-2.951e-4 0.0015,-6.479e-4 0.0022,-9.313e-4 -0.0048,-7.904e-4 -0.0097,-0.00158 -0.01445,-0.00239 0.04635,-0.012598 0.05737,-0.015756 0.01445,0.00239 0.0014,2.354e-4 0.0029,4.658e-4 0.0044,6.985e-4 0.009,-2.92e-4 0.01818,-5.009e-4 0.02727,-6.985e-4 0.103868,-0.032206 0.231588,-0.046316 0.344465,-0.046099 0.103056,1.967e-4 0.19382,0.012329 0.243282,0.033469 0.200609,-0.066679 0.398179,-0.1312898 0.582019,-0.1919053 v -4.655e-4 c 0.0964,-0.031782 0.19187,-0.061995 0.28719,-0.091151 z M 97.066645,4.3002996 c -0.0077,0.00288 -0.01215,0.00556 -0.0082,0.00378 0.0026,-0.0011 0.0055,-0.00218 0.0082,-0.00326 -2.7e-5,-1.788e-4 1.6e-5,-3.486e-4 0,-5.245e-4 z m -0.461198,0.3041847 c -0.03791,0.026389 -0.07015,0.047505 -0.112912,0.078578 2.79e-4,5.96e-5 9.77e-4,-5.96e-5 0.0014,0 0.0021,-6.616e-4 0.0045,-0.00149 0.0068,-0.00227 0.03759,-0.021787 0.07764,-0.042479 0.118094,-0.062746 -0.0064,-0.00408 -0.0111,-0.00859 -0.01336,-0.013562 z M 90.45607,10.524328 c 0.0033,-4.89e-4 -0.02541,0.0082 -0.07718,0.02741 -0.02164,0.01008 -0.03892,0.01807 -0.05537,0.02584 -0.02033,-0.0073 0.0105,-0.02243 0.118368,-0.04977 0.0085,-0.0022 0.0131,-0.0033 0.01418,-0.0035 z m -2.067339,2.353096 c -5.59e-4,-1.4e-5 -0.0167,0.0068 -0.02318,0.0093 8.37e-4,8.9e-5 0.0015,1.49e-4 0.0025,2.38e-4 0.007,-0.003 0.01382,-0.0061 0.02018,-0.0092 5.59e-4,-2.38e-4 4.19e-4,-2.68e-4 5.59e-4,-3.48e-4 z m -0.528562,0.207097 c -0.0024,4.29e-4 -0.01751,0.0045 -0.02127,0.0065 -0.0029,0.0014 -0.0059,0.0034 -0.0096,0.0056 0.01022,-0.0038 0.0204,-0.0077 0.03,-0.01158 6.98e-4,-2.68e-4 8.38e-4,-4.23e-4 8.38e-4,-4.65e-4 z m -0.05591,0.05448 c 9.78e-4,-6.35e-4 -0.06037,0.01 -0.08346,0.01368 0.0011,-4.5e-4 0.003,-0.0019 0.0019,-0.0015 -0.0088,0.0029 -0.01541,0.005 -0.02236,0.0073 0.03377,-0.006 0.06754,-0.01207 0.09955,-0.01851 0.003,-6.05e-4 0.0042,-9e-4 0.0044,-9.89e-4 z m -0.3041,0.06205 c -0.01387,0.0062 -0.02742,0.01242 -0.04118,0.01863 -1.39e-4,6e-5 -4.19e-4,1.19e-4 -5.58e-4,1.79e-4 -0.18129,0.04028 -0.0026,-0.007 0.04173,-0.0188 z m -0.11264,0.04173 c -0.01428,0.0049 -0.04944,0.01712 -0.06409,0.02282 8.38e-4,-6.02e-4 0.0015,-0.0012 0.0025,-0.0018 0.06927,-0.02351 0.07592,-0.02591 0.06164,-0.02101 z m 0.09682,0.363322 c -8.38e-4,0.002 -0.01092,0.0053 -0.0065,0.0066 0.0022,-0.0022 0.0046,-0.0044 0.0065,-0.0066 z m -0.686748,0.57135 c -0.0186,0.0027 -0.0503,0.0019 -0.07473,0.0031 0.0026,8.79e-4 0.0051,0.0018 0.0087,0.0027 -0.0028,0.0022 -0.0043,0.0033 -0.0068,0.0054 v 1.19e-4 c 0.01675,3.58e-4 0.03598,3e-5 0.04718,-7.57e-4 0.01763,-0.0013 0.02246,-0.0064 0.02564,-0.01048 z m -0.95894,0.83351 c -5.58e-4,1.19e-4 -0.0011,2.39e-4 -0.0016,3.49e-4 -9.77e-4,9.5e-4 -0.0033,0.003 -0.0035,0.0041 0.0018,-0.0016 0.0034,-0.0029 0.0052,-0.0044 z m -0.05809,0.0741 c -5.58e-4,0.0014 -0.0017,0.0024 -0.0019,0.004 -1.4e-4,0.0012 0.0036,-0.0014 0.0071,-0.0032 -0.0017,-2.68e-4 -0.0034,-4.98e-4 -0.0052,-7.57e-4 z m -1.492413,1.45515 c -0.0082,0.0047 -0.03929,0.02096 -0.02264,0.02491 0.0069,-0.0084 0.0147,-0.01662 0.02264,-0.02491 z m -0.705295,0.863021 c -0.0066,0.0052 -0.0131,0.01033 -0.01964,0.01548 -0.0061,0.0048 0.01327,-0.0095 0.01855,-0.01438 4.19e-4,-3.66e-4 6.98e-4,-7.51e-4 0.0011,-0.0011 z m 7.437783,7.855544 c -0.0043,-2.98e-4 -0.04747,0.0092 -0.096,0.02293 0.0043,-8.9e-5 0.0086,-1.49e-4 0.01282,-2.38e-4 0.0023,-5.61e-4 0.0045,-0.0011 0.0068,-0.0017 0.05951,-0.01462 0.07971,-0.02079 0.07636,-0.02101 z m -0.10282,0.02503 c -0.01147,0.0033 -0.0229,0.0068 -0.03437,0.01048 0.01438,-0.0033 0.02847,-0.0067 0.04255,-0.01013 -0.0028,-1.19e-4 -0.0053,-2.08e-4 -0.0082,-3.51e-4 z m 0.04855,0.449991 c -0.0078,2.68e-4 -0.01545,5.34e-4 -0.02318,8.14e-4 -0.0087,3.04e-4 -0.0034,0.007 0.0014,0.0055 0.0071,-0.0021 0.01432,-0.0042 0.02182,-0.0063 z m -1.289495,0.0323 c 0.02046,0.0039 0.04067,0.0066 0.05973,0.0061 -0.004,-9.98e-4 -0.008,-0.0021 -0.012,-0.0031 -0.0041,6.83e-4 -0.0097,0.0026 -0.01227,0.0017 -0.0044,-0.0015 -0.0083,-0.0031 -0.01254,-0.0047 -0.0079,1.9e-5 -0.0157,1.4e-5 -0.02291,0 z" /></clipPath><clipPath
       clipPathUnits="userSpaceOnUse"
       id="clipPath1919"><path
         id="path1921"
         style="fill:#ff0000;fill-opacity:1;fill-rule:nonzero;stroke:none;stroke-width:0.719914"
         d="M 515.25618,-0.51299993 V 512.52709 H 59.235066 V -0.51299993 Z M 355.48568,34.318945 c -0.0259,-3.66e-4 -0.0508,-1.17e-4 -0.0773,0 -1.05936,0.0048 -1.94026,0.419317 -2.04422,1.10191 -0.0302,0.0015 -0.0609,0.0037 -0.0911,0.005 0.0328,0.07194 0.0581,0.144641 0.0852,0.217588 0.0263,0.297635 0.18904,0.636048 0.52888,1.00709 0.47856,0.522481 0.92512,1.05148 1.56088,1.534091 0.45543,0.345633 0.96583,0.673215 1.49948,0.989124 0.31201,0.184703 0.6402,0.363409 0.99239,0.528997 0.47051,0.649835 0.91455,1.261144 1.11322,1.5291 0.25824,0.348245 0.0829,0.952307 0.80024,1.03903 1.59254,0.192469 3.24219,-0.236774 4.8629,-0.355327 -0.0726,-0.237201 -0.12293,-0.413526 -0.16441,-0.56393 0.31234,-0.09025 0.13967,-0.270682 -0.12676,-0.470109 -0.0489,-0.173849 -0.0874,-0.258974 -0.20205,-0.425193 0.12645,-0.04043 0.24908,-0.0841 0.36844,-0.130752 0.26426,-0.103316 -0.10773,-0.260517 -0.42984,-0.416211 -0.4877,-0.445463 -0.97896,-0.889845 -1.45392,-1.338462 0.0284,-0.01383 0.0565,-0.02727 0.0852,-0.04092 -0.16201,-0.10961 -0.31719,-0.22219 -0.47538,-0.333368 -0.14625,-0.142736 -0.2896,-0.285885 -0.42985,-0.430185 -0.29323,-0.409472 -0.58593,-0.819343 -0.88543,-1.227672 -0.22261,-0.303663 -0.0472,-0.895842 -0.68931,-0.906281 -0.25208,-0.004 -0.50004,0.0057 -0.74478,0.02595 -0.19129,-0.217882 -0.44459,-0.396979 -0.87355,-0.467114 -0.17792,-0.0291 -0.3575,-0.05094 -0.53879,-0.06587 -0.005,-0.0051 -0.0109,-0.01111 -0.0158,-0.01597 0.0352,-0.01355 0.0708,-0.02703 0.10499,-0.04092 -0.33675,-0.216021 -0.4167,-0.269651 -0.10499,0.04092 -0.0104,0.004 -0.022,0.008 -0.0316,0.01198 -0.0657,-0.005 -0.13217,-0.0086 -0.19809,-0.01198 -0.73087,-0.535001 -1.62398,-0.779169 -2.42451,-0.790501 z m 14.98089,25.713236 c -0.006,-0.0015 -0.0128,-0.0015 -0.0218,0 -0.58014,0.08868 -1.00014,0.142573 -1.34102,0.185648 -0.31125,0.0093 -0.6675,0.01727 -1.13303,0.01998 -0.0678,3.68e-4 0.0211,0.06584 0.0316,0.09881 0.018,0.05814 0.0368,0.116474 0.0534,0.174665 -0.004,0.03404 10e-4,0.07619 0.0119,0.123767 -0.23014,0.07424 -0.35432,0.136885 -0.40013,0.211597 -10e-4,7.7e-5 -0.003,-7.6e-5 -0.004,0 -0.009,-0.01196 -0.0154,-0.02105 -0.0258,-0.03291 -0.008,-0.01063 -0.009,0.03521 0.0139,0.03393 0.004,-2.19e-4 0.008,-4.65e-4 0.0119,-10e-4 8.5e-4,10e-4 8.2e-4,0.002 0.002,0.0031 -0.0842,0.144305 0.10812,0.336085 0.3506,0.747582 0.13216,0.231472 0.26354,0.462304 0.39616,0.693684 0.0777,0.135551 0.15554,0.271766 0.23374,0.40723 0.004,0.01431 0.009,0.02857 0.0139,0.04293 -6.9e-4,0.0066 0.004,0.01421 0.008,0.02197 0.0184,0.05693 0.0354,0.113858 0.0534,0.170674 0.0472,0.14107 0.0989,0.28049 0.16836,0.418207 10e-4,0.06674 0.005,0.139788 0.0258,0.186649 0.004,-0.0036 0.007,-0.0076 0.0119,-0.01099 -0.0185,-0.002 -0.0245,-0.07907 -0.0297,-0.160693 0.0177,0.03424 0.0353,0.06874 0.0555,0.102804 -0.007,0.02826 -0.0124,0.04512 -0.0179,0.0529 0.0363,-0.021 0.0979,-0.03434 0.1743,-0.04293 0.0696,0.128831 0.12911,0.235401 0.19214,0.343351 10e-4,0.0046 0.003,0.0093 0.004,0.01395 0.0367,0.115912 0.24617,0.840957 0.44171,1.353434 -0.16819,0.01773 -0.34774,0.03741 -0.54869,0.05989 -0.21685,0.02422 -0.12753,0.215031 -0.15053,0.32638 -0.0763,0.402677 0.13743,0.794581 0.25156,1.188745 0.031,0.188902 0.0701,0.377738 0.0931,0.566927 0.29142,2.332585 -0.16775,-0.900355 0.16639,1.517123 0.0236,0.171829 0.0135,0.346147 0.0515,0.51702 -0.045,0.0991 -0.0746,0.199205 -0.0792,0.301427 -0.005,0.11631 0.12353,0.443651 0.29713,0.833419 -0.0218,0.103091 -0.0569,0.259676 -0.0931,0.425193 -0.17017,0.268885 -0.22937,0.523087 -0.20798,0.788506 -10e-4,0.0041 -0.003,0.0079 -0.004,0.01196 -0.0874,-0.0231 -0.16403,-0.03383 -0.22185,-0.02397 -2.42985,0.415585 -1.66872,1.025695 -0.56254,1.463224 0.0531,0.02131 0.10876,0.0419 0.16439,0.06189 0.0913,0.04814 0.18508,0.09578 0.26741,0.146722 0.25727,0.150453 0.50989,0.302285 0.77054,0.451143 0.19372,0.110546 1.13789,0.700138 1.56286,0.473102 0.14171,-0.07569 0.26415,-0.148643 0.37042,-0.218583 0.0621,0.01599 0.12569,0.02841 0.19016,0.03495 0.0371,0.02943 0.0732,0.05792 0.0991,0.07486 0.13507,0.09175 0.31029,0.309838 0.48728,0.238549 0.0473,-0.01906 0.0939,-0.03904 0.14065,-0.05889 0.0136,0.04114 0.0268,0.08257 0.0396,0.123766 0.16168,0.410777 0.32455,0.819086 0.57841,1.218691 0.0989,0.156028 0.22694,0.307569 0.33475,0.46212 0.041,0.05907 0.0809,0.11837 0.12083,0.177665 0.1288,0.173398 0.25937,0.34813 0.36248,0.526004 0.0261,0.04441 0.0464,0.0893 0.0733,0.133742 0.0134,0.02075 0.0281,0.04139 0.0396,0.06189 0.0334,0.05416 0.0665,0.108533 0.10102,0.162692 0.0192,0.01927 0.0381,0.03679 0.0534,0.05689 0.0982,0.14292 0.23868,0.405779 0.30308,0.532985 0.19663,0.387673 0.18184,0.37412 0.32683,0.750576 0.47375,1.228324 2.86362,0.943593 2.44433,-0.290449 -0.1288,-0.378981 -0.31676,-0.752391 -0.52691,-1.121871 -0.0468,-0.08226 -0.093,-0.164644 -0.14856,-0.245535 -0.13867,-0.20336 -0.13493,-0.106162 -0.13668,-0.187641 -0.0222,-0.03536 -0.0461,-0.07019 -0.0653,-0.105803 -0.0115,-0.0231 -0.0232,-0.04676 -0.0357,-0.06987 -0.12609,-0.218307 -0.28051,-0.432756 -0.43776,-0.645774 -0.0306,-0.04666 -0.0625,-0.09332 -0.0931,-0.139731 -0.11604,-0.16632 -0.25593,-0.32916 -0.36249,-0.497059 -0.21199,-0.334046 -0.3333,-0.681746 -0.46746,-1.025057 -0.20019,-0.448332 -0.13584,-0.910851 -0.2377,-1.364411 -0.0702,-0.311315 -0.16664,-0.503085 -0.29515,-0.810465 -0.23945,-0.536577 -0.16627,-0.3815 -0.41399,-0.898295 -0.0491,-0.102998 -0.0933,-0.207203 -0.14855,-0.309414 -0.10081,-0.186133 -0.23262,-0.361396 -0.38824,-0.536981 -0.16187,-0.173321 -0.29757,-0.345564 -0.66555,-0.452145 -0.14106,-0.04083 -0.28739,-0.07044 -0.43776,-0.09082 -0.0225,-0.05659 -0.0499,-0.112504 -0.0752,-0.168681 0.0424,-0.112872 0.0709,-0.184636 0.13864,-0.371295 0.092,-0.253083 0.19655,-0.505777 0.26741,-0.760557 0.0925,-0.332512 0.146,-0.587062 0.0812,-0.893307 1.01969,0.04333 1.10974,-0.27007 0.97257,-0.646776 0.16524,-0.09292 0.0155,-0.227859 -0.17629,-0.369297 -0.0656,-0.121697 -0.13083,-0.240154 -0.17432,-0.346346 -0.63543,-1.19175 -0.71897,-1.396412 -1.45391,-2.572121 -0.20399,-0.326323 -0.42719,-0.649883 -0.64376,-0.974152 -0.0563,-0.08421 -0.11813,-0.17141 -0.17827,-0.257509 -0.0611,-0.307615 0.0532,-0.644496 -0.24166,-0.913268 -0.1603,-0.146053 -0.30525,-0.269426 -0.43975,-0.374294 -0.0537,-0.172361 -0.10589,-0.344548 -0.15846,-0.517021 -6.9e-4,-0.0026 -9.1e-4,-0.0046 -0.002,-0.007 -0.0258,-0.135704 -0.0435,-0.231374 -0.0892,-0.295437 -0.0174,-0.05761 -0.0367,-0.115089 -0.0534,-0.172672 -0.0102,-0.03306 0.0231,-0.103985 -0.0158,-0.113786 z m 3.79128,13.443506 c 0.0559,0.04931 0.0895,0.09528 0.0594,0.06488 -0.0187,-0.01886 -0.0407,-0.0373 -0.0594,-0.0559 10e-5,-0.0031 -1.1e-4,-0.006 0,-0.009 z m 48.01097,106.729603 c -0.0237,-0.008 0.18444,0.14044 0.56058,0.4701 0.15705,0.17292 0.28267,0.31085 0.40211,0.44416 -0.71288,0.59734 -9.91947,-1.86902 -7.22999,0.72662 0.28902,0.27899 0.14498,0.17417 0.38033,0.32938 0.25736,0.27761 0.48276,0.50796 0.69922,0.79848 0.54284,0.72877 0.91089,1.49293 1.0439,2.2687 0.15907,0.59584 0.2907,1.19378 0.47737,1.78761 0.30622,0.97467 0.78034,1.93509 1.05775,2.91248 0.19046,0.58142 0.24067,0.80064 0.51501,1.37339 0.0993,0.20671 0.21051,0.4113 0.33279,0.61484 0.0866,0.1436 0.28434,0.36997 0.36446,0.527 0.0625,0.1224 0.10722,0.24688 0.16044,0.3703 0.0698,0.1448 0.13171,0.29028 0.20799,0.43417 0.0364,0.0689 0.24336,0.41375 0.3209,0.51902 0.0101,0.012 0.0319,0.0214 0.0396,0.033 0.0747,0.12342 0.12322,0.40492 0.13866,0.4731 0.14747,0.41196 0.19885,0.62468 0.34862,0.87734 0.0153,0.0284 -0.0235,-0.1184 -0.0158,-0.0888 0.033,0.10123 0.0583,0.20283 0.0852,0.30443 0.14605,0.44585 0.19808,0.89622 0.33081,1.34345 0.0168,0.0566 0.0582,0.10987 0.0812,0.16568 0.25912,0.60563 -0.0505,-0.0255 0.311,0.67473 0.11155,0.0233 0.12322,0.25765 0.13866,0.3154 0.0686,0.24421 0.105,0.49189 0.21195,0.73261 0.1825,0.41126 0.61813,0.89331 0.929,1.27558 l -0.002,0.001 c 0.0858,0.10542 0.1747,0.20593 0.26741,0.30143 0.0849,0.27437 0.16134,0.54968 0.2991,0.81944 0.0391,0.0616 0.0862,0.12207 0.11686,0.18465 0.10629,0.20647 0.22416,0.55254 0.30504,0.74259 0.22996,0.54158 0.50107,1.07891 0.69924,1.62392 0.14873,0.35027 0.20393,0.49593 0.37834,0.84141 0.061,0.1206 0.13546,0.23941 0.19411,0.36031 0.16517,0.34004 0.30487,0.68485 0.39418,1.03205 0.0495,0.12776 0.0915,0.25637 0.14857,0.38327 0.50968,1.13444 -0.0614,-0.17383 0.30901,0.55295 0.15754,0.30952 0.2602,0.6264 0.37635,0.94022 0.14934,0.36224 0.31638,0.72212 0.47737,1.08294 0.0276,0.062 0.0622,0.12307 0.0852,0.18565 0.0383,0.10822 0.0655,0.21764 0.095,0.32638 0.0901,0.17016 0.0944,0.32973 0.13273,0.50704 0.0487,0.23133 0.12258,0.46343 0.23769,0.6887 0.0552,0.12452 0.0989,0.25025 0.16638,0.37329 0.22374,0.40817 0.20523,0.28674 0.46549,0.64877 0.26591,0.36941 0.48368,0.74725 0.68338,1.12686 0.0476,0.0701 0.10239,0.13933 0.14263,0.2106 0.23331,0.41467 0.27695,0.85347 0.57642,1.25961 0.0728,0.14844 0.0947,0.1833 0.1446,0.33936 0.10759,0.33681 0.0246,0.16929 0.16836,0.54896 0.0119,0.0315 0.038,0.0605 0.0495,0.0918 0.0226,0.0549 0.0382,0.11145 0.0574,0.16669 0.0334,0.0877 0.0665,0.17481 0.10101,0.2625 0.0115,0.0176 0.026,0.0355 0.0337,0.0529 0.12963,0.27975 0.20047,0.56783 0.42191,0.83542 0.005,0.0116 0.009,0.0234 0.0139,0.035 0.004,0.008 0.0223,0.0162 0.0237,0.024 0.0754,0.242 0.11845,0.48441 0.25157,0.72164 5.8e-4,0.002 7e-4,0.004 0.002,0.005 0.006,0.0181 0.013,0.0361 0.0218,0.0539 0,0.004 0.0132,-0.008 0.0139,-0.004 0.0256,0.12166 0.0388,0.35155 0.0871,0.4771 0.004,0.007 0.0191,-0.0132 0.0297,-0.019 -0.0115,0.11723 -0.0261,0.25627 -0.0258,0.3713 7.5e-4,0.35263 0.0985,0.70095 0.18818,1.05001 0.13355,0.32781 0.25776,0.66018 0.54076,0.96616 0.004,0.007 0.028,-0.0218 0.0357,-0.014 0.0418,0.0429 0.0564,0.0922 0.0832,0.13774 0.1038,0.33621 0.21309,0.66359 0.42391,0.98813 0.40071,0.61706 0.0424,0.0251 0.26938,0.33336 -0.0547,0.0162 -0.10693,0.0338 -0.16044,0.0509 -0.13987,0.0241 -0.28014,0.0479 -0.41993,0.0719 -0.10776,-0.0189 -0.21404,-0.0386 -0.32486,-0.0509 -0.69568,-0.0796 -1.40137,-0.0642 -2.10758,-0.0389 -0.32521,0.0168 -0.64941,0.0335 -0.97457,0.0509 -0.22857,0.017 -0.45774,0.0374 -0.68735,0.0509 -0.29017,0.0168 -0.58298,0.0245 -0.87353,0.0399 -0.16923,0.009 -0.33646,0.0263 -0.50511,0.0379 -0.12933,0.008 -0.49376,-0.0156 -0.38823,0.023 0.15819,0.0581 0.3852,0.0315 0.57839,0.0469 0.0788,0.0495 0.16421,0.0975 0.25157,0.14472 -1.52718,-0.051 -4.3416,0.0299 -3.52784,1.15681 0.23903,-0.17122 1.78104,0.39891 3.16733,0.76156 -0.80255,0.0285 -1.62791,-0.0189 -2.06599,-0.0539 -0.25823,-0.11457 -0.50782,-0.23136 -0.7131,-0.36231 -0.0456,-0.0897 -0.0944,-0.17959 -0.18422,-0.24654 -0.0682,-0.0511 -0.007,0.0474 0.0713,0.16868 -0.10506,-0.0768 -0.19473,-0.15885 -0.26145,-0.24753 -0.0784,0.0729 0.014,0.24297 0.40407,0.58988 l 0.004,0.001 c 0.22589,0.20083 -3.5e-4,-0.11958 -0.14459,-0.34135 0.0354,0.0258 0.0721,0.0511 0.11092,0.0759 0.078,0.15308 0.15113,0.30457 0.41795,0.33536 0.0439,0.005 0.15693,0.0159 0.29515,0.0269 0.32723,0.14517 0.66949,0.28602 0.95475,0.44416 0.80059,0.072 1.4889,-0.0149 2.26407,-0.0589 0.18548,-0.0112 0.37345,-0.009 0.55859,-0.0209 2.93447,-0.1692 -0.69966,0.0147 1.7451,-0.1058 -0.65931,-0.0639 -0.006,-0.035 0.45163,-0.014 0.18567,0.0345 1.01221,0.13249 1.13698,0.14772 -0.0876,-0.0144 -0.1762,-0.03 -0.25156,-0.0559 -0.21365,-0.0731 -0.82954,-0.29272 -0.58039,-0.25851 0.32678,0.0448 0.63559,0.11508 0.9409,0.19064 0.12675,0.10188 0.142,0.16799 0.33079,0.28945 0.002,0.001 0.004,0.004 0.006,0.005 0.0685,0.1038 0.12904,0.19358 0.18025,0.26249 0.0489,0.12184 0.10121,0.23487 0.1446,0.27749 0.023,0.0226 0.0228,-0.0986 0.0357,-0.0739 0.46139,1.05717 0.0408,0.70075 0.82401,1.44725 0.0345,0.033 -0.0443,-0.0713 -0.0673,-0.10679 0.12871,0.14131 0.23249,0.28918 0.38626,0.42419 0.004,0.003 0.006,0.005 0.008,0.006 0.002,-0.0177 -0.14156,-0.22312 -0.103,-0.17566 0.13401,0.16474 0.26551,0.33476 0.39616,0.50405 -0.2531,0.18122 -0.23713,0.48856 0.29712,0.82143 0.11335,0.0707 0.23287,0.13874 0.34268,0.2106 -1.14506,-0.0841 -0.60701,0.49522 -0.37239,0.8983 0.0419,0.072 0.0822,0.14437 0.12281,0.21658 -0.0517,0.0232 -0.10347,0.0466 -0.15648,0.0689 -0.0713,0.0301 -0.34631,0.055 -0.25355,0.0589 0.16916,0.006 0.31023,0.006 0.43182,0.003 -0.23409,0.28025 -0.64883,0.55931 -0.4952,0.8424 0.0797,0.14665 0.52691,0.093 0.88542,0.0459 -0.0433,0.023 -0.1344,0.0431 -0.10893,0.0699 0.0659,0.0672 0.2324,0.0943 0.33474,0.14872 0.0406,0.0287 0.0822,0.0571 0.12281,0.0858 -0.004,0.002 -0.008,0.003 -0.0119,0.004 -0.0269,0.008 0.0419,0.0219 0.0634,0.0329 -0.0174,-0.0122 -0.0341,-0.0246 -0.0515,-0.0369 0.2457,-0.08 0.53559,-0.135 0.8161,-0.19463 0.0121,0.0142 0.0265,0.0277 0.0436,0.0399 0.0392,0.0425 0.0779,0.0851 0.11687,0.12777 -0.64501,0.32636 -1.26323,0.68271 -1.85009,0.99611 -0.36445,0.19458 -0.006,0.53601 0.0594,0.80147 0.19001,0.76875 0.49753,1.41669 0.85175,2.11 -0.0142,-0.003 -0.0272,0.0183 -0.0297,0.0289 -0.0192,0.0767 -0.0202,0.1545 -0.0317,0.23156 -0.15618,0.5157 0.0737,1.01273 0.39617,1.49417 0.0111,-0.017 0.0319,-0.0286 0.0653,-0.035 0.18031,-0.0282 0.36113,-0.0543 0.54275,-0.0798 0.31827,0.38677 0.70574,0.70169 1.13302,0.95019 -0.0259,0.0996 -0.06,0.18721 -0.103,0.25552 0.0438,0.0238 0.29489,0.41256 0.36645,0.56292 0.009,0.0199 0.0101,0.0408 0.0179,0.0609 -0.13072,-0.19597 -0.30417,-0.386 -0.3823,-0.58889 -0.007,-0.0173 -0.006,-0.0215 -0.006,-0.028 -0.3575,0.55671 -1.11632,0.15796 0.3922,0.63281 0.0661,0.18207 0.0803,0.36924 0.16243,0.54994 0.22263,0.49111 0.31671,0.66195 0.51897,0.81946 -0.0568,0.24825 -0.13612,1.04217 -0.14658,1.1548 0.16715,0.0622 0.30734,0.15909 0.48332,0.2106 0.0946,0.11965 0.20204,0.23711 0.31297,0.35334 0.005,0.13509 0.0242,0.29978 0.004,0.39026 1.53516,0.98802 0.19156,-0.0748 0.5784,0.76355 0.11035,0.23907 0.33036,0.4619 0.52887,0.6867 0.0216,0.0631 0.0423,0.12633 0.0673,0.18864 -0.0203,0.0298 -0.0364,0.0599 -0.0416,0.0918 -0.0923,0.56636 0.38797,0.61435 0.71112,1.06399 -0.0507,0.11819 0.0839,0.27411 0.0832,0.40223 -0.0153,-0.11771 0.0229,-0.24115 -0.0495,-0.35332 -0.0113,-0.0173 -0.022,-0.0327 -0.0337,-0.0489 0.0136,-0.0317 0.0416,-0.0607 0.0871,-0.0858 0.17632,-0.0938 0.19675,0.24347 0.21591,0.3723 0.0215,0.14731 -0.0779,0.29278 -0.0971,0.44016 -0.0153,0.12043 0.0817,0.25048 -0.008,0.36231 -0.0786,0.0981 -0.48056,0.11233 -0.45758,0.21759 0.0111,0.0514 0.12181,0.0619 0.24563,0.0659 -0.15272,0.0553 -0.0742,0.26588 -0.13271,0.35932 -0.11129,0.17808 -0.5129,0.32141 -0.47144,0.50703 0.058,0.2604 0.49224,0.46192 0.73885,0.69269 0.0319,0.24873 0.0658,0.49685 0.095,0.74559 l 0.006,0.009 c -0.1498,-0.0552 -0.2508,-0.0247 -0.23968,0.43318 3.4e-4,0.0157 0.0303,0.0285 0.0337,0.0439 -1.42859,0.6605 -2.83337,1.53711 -4.14583,2.65797 -1.29057,1.10216 -3.01622,2.37976 -3.67244,3.65407 -0.3957,0.76832 -1.28142,1.6297 -0.65762,2.35853 0.92343,1.07887 1.90041,2.12945 3.08611,3.0063 0.0487,0.15452 0.0982,0.30931 0.17233,0.46112 0.53196,1.08843 0.8009,1.30199 1.61436,2.21679 0.30522,0.35806 0.51804,0.59425 0.82006,0.88133 -0.0766,-0.0799 -0.13898,-0.15429 -0.1664,-0.2076 -0.24757,-0.48155 -0.4776,-0.97572 -0.47737,-1.4732 1.2e-4,-0.16108 0.029,-0.42334 0.0694,-0.6857 0.32586,0.14658 0.66238,0.28344 1.02012,0.40223 0.61357,1.32481 0.88019,2.69561 1.4044,4.03235 -0.72779,-0.66206 -1.26372,-1.38765 -2.18286,-1.98622 -0.31692,-0.20632 0.15843,0.5172 0.31099,0.76654 0.39274,0.64256 0.84212,1.27685 1.32119,1.90438 0.0783,0.10253 0.79183,0.91096 1.28358,1.47421 0.12339,0.30624 0.27887,0.60931 0.38428,0.91726 0.0111,0.0328 -0.0687,-0.11251 -0.10697,-0.0848 -0.17028,0.12809 0.10291,0.86582 0.34467,1.44027 0.0633,0.49166 0.14255,0.98263 0.25156,1.47221 0.11975,0.53796 0.17274,0.66824 0.19808,0.68271 0.0113,0.0653 0.0234,0.11146 0.0337,0.0938 0.0711,0.44282 0.13541,0.8857 0.22779,1.32748 0.0751,0.35852 0.4646,1.55433 0.50907,1.68779 0.23964,0.70358 0.44463,2.09918 0.70913,3.16401 0.33842,1.23099 0.0462,0.077 0.96862,2.24175 0.0541,0.12723 -0.35078,-0.48951 -0.27335,-0.36532 0.89297,1.43059 0.82872,0.81755 0.85175,1.49816 0.44165,0.82 0.68741,1.66453 1.17858,2.4783 0.18709,0.30998 0.42663,0.61096 0.6299,0.91826 -0.0687,-0.0943 -0.14701,-0.18843 -0.16046,-0.13773 -0.0459,0.184 0.12654,0.36527 0.19017,0.54795 0.56819,1.08401 0.52326,1.19934 1.54306,2.25473 0.28457,0.29455 0.6681,0.56213 0.9805,0.84939 0.0115,0.009 -0.005,0.0317 -0.0237,0.03 -0.059,-0.006 -0.15788,-0.0762 -0.1545,-0.0459 0.0192,0.16911 0.13739,0.33134 0.206,0.49705 -0.008,0.0798 -0.0311,0.15917 -0.0158,0.23855 0.0642,0.32989 0.21879,0.65664 0.25157,0.98713 -0.007,-0.0192 -0.0197,-0.0356 -0.0357,-0.0449 -0.0459,-0.0265 -0.0262,0.069 -0.0297,0.10381 -0.0272,0.24836 -0.0405,0.49708 -0.0594,0.74558 0.62061,4.28377 -0.0949,-0.40714 0.43181,2.50425 0.21541,0.31613 0.0156,0.63979 0.0653,0.95819 0.0663,0.42154 0.25838,1.2261 0.37833,1.7377 0.22871,0.81121 0.40665,1.55237 0.77847,2.35653 0.20031,0.43317 0.49337,0.85351 0.71111,1.28457 0.0345,0.0652 0.0281,0.1336 0.0396,0.20062 0.11078,0.22984 0.18789,0.46471 0.33278,0.68969 0.25256,0.39224 0.57174,0.77341 0.85769,1.1598 0.10181,0.10976 0.59593,0.60523 0.69329,0.80447 0.0394,0.0808 10e-4,0.16896 0.0495,0.24853 0.57404,0.94435 1.30102,1.87099 1.93724,2.80568 0.51361,0.77096 0.86826,1.5647 1.35487,2.34056 0.62054,0.98707 0.37749,0.42837 0.64773,1.18575 0.21964,0.60449 0.59946,1.19136 0.83788,1.7936 0.0306,0.0787 8.9e-4,0.16017 0.0237,0.23955 0.1616,0.59145 0.34439,1.24112 0.51304,1.82753 0.60606,1.15217 0.72909,2.35063 1.42223,3.49338 0.24206,0.39908 0.5948,0.77939 0.84779,1.17677 0.0663,0.1041 -0.19178,-0.19633 -0.28722,-0.29444 0.50217,1.59035 1.59931,3.10718 2.2918,4.67513 0.8125,2.09296 1.51088,4.19657 2.31755,6.29007 0.11193,0.52949 0.12788,0.69728 0.37438,1.28856 0.1368,0.32825 0.32002,0.65048 0.47143,0.97714 0.44161,0.95391 0.79441,1.91922 1.16472,2.88054 0.11143,0.94346 0.30386,1.89002 0.83194,2.80169 0.41559,0.71744 1.06335,1.42763 1.549,2.13894 0.80453,1.59633 1.39909,3.21839 2.0442,4.83284 0.32842,1.02909 0.88658,2.03832 1.25187,3.06319 0.0407,0.11419 0.0148,0.23203 0.0416,0.34734 0.0586,0.26691 0.12259,0.53357 0.20996,0.79848 0.11935,0.36186 0.27393,0.72062 0.41004,1.08095 1.22768,2.46419 -0.14913,-0.25739 1.032,1.96727 0.0609,0.11475 0.0489,0.24266 0.16044,0.34735 0.89824,0.84205 1.90462,1.65326 2.85634,2.48029 9.97357,8.66703 4.839,-15.95217 14.25592,-7.12848 0.80093,0.75049 1.4652,1.54154 2.40273,2.25073 0.2613,0.19774 -0.22156,-0.46206 -0.34268,-0.69169 -0.12443,-0.2361 -0.26584,-0.46935 -0.39617,-0.70466 -0.0943,-0.16968 -0.18491,-0.34006 -0.27732,-0.51003 -0.35833,-0.79864 -0.4633,-1.61228 -0.74081,-2.41941 -0.3316,-0.96376 -0.87641,-1.91183 -1.17463,-2.87954 -0.82684,-2.06876 -1.55194,-4.15549 -2.77512,-6.17629 -0.14465,-0.20626 -0.8919,-1.29837 -1.12115,-1.52311 -0.0816,-0.0803 0.0856,0.17629 0.0971,0.26649 0.002,0.0168 -0.0576,0.0583 -0.0614,0.0409 -0.26253,-0.76506 -0.21757,-1.55325 -0.53879,-2.31362 -0.30641,-0.79414 -0.62299,-1.63828 -0.96069,-2.42939 -0.3901,-0.9143 -0.93906,-1.77552 -1.04983,-2.71784 -0.85248,-2.20498 -1.56693,-4.42316 -2.4582,-6.62443 -0.17756,-0.38245 -0.34156,-0.76702 -0.53283,-1.14783 -0.56159,-1.1191 -1.37321,-2.20623 -1.68369,-3.35563 -0.2544,-0.47671 -0.48702,-0.9566 -0.76262,-1.43029 -0.0288,-0.0487 0.0101,0.10193 0.0179,0.1527 -0.067,-0.11597 -0.13298,-0.23225 -0.20006,-0.34833 -0.2508,-0.58322 -0.3884,-1.17724 -0.61803,-1.76266 -0.059,-0.15067 -0.14905,-0.29823 -0.22383,-0.44715 -0.28937,-0.78179 0.0486,0.18228 -0.32088,-1.25163 -0.2912,-1.12959 -0.799,-2.23867 -1.33705,-3.34366 -0.75293,-1.52231 -1.66201,-3.02452 -2.56912,-4.52541 -0.33187,-0.48621 -0.80248,-1.1841 -1.15283,-1.65686 -0.11269,-0.15239 -0.26596,-0.29724 -0.36447,-0.45214 -0.54051,-0.85085 -0.89535,-1.72413 -1.74906,-2.51523 -0.13278,-0.30669 -0.25369,-0.61548 -0.41004,-0.91926 -0.0468,-0.0914 -0.16868,-0.16995 -0.21392,-0.2615 -0.27657,-0.55841 -0.40124,-1.10141 -0.56453,-1.66984 -0.0601,-0.24717 -0.0871,-0.49703 -0.18025,-0.7416 -0.0157,-0.0415 -0.0514,0.16606 -0.0555,0.12377 -0.0335,-0.31849 -0.003,-0.63756 -0.0337,-0.95618 -0.036,-0.3873 -0.21785,-1.51386 -0.34664,-1.92037 -0.0138,-0.0433 -0.0843,-0.0765 -0.12677,-0.11477 0.0287,-0.40903 0.0972,-0.81742 0.10101,-1.22668 0.0135,-1.18259 -0.43265,-2.34347 -0.74083,-3.51134 -0.56858,-1.15478 -0.638,-1.47193 -1.60644,-2.62103 -0.24903,-0.29551 -0.57594,-0.57222 -0.88741,-0.85238 -0.52783,-1.28629 -1.32647,-2.52214 -1.85007,-3.81776 -0.2549,-0.50158 -0.48093,-1.0065 -0.76461,-1.50415 -0.008,-0.0147 -0.0716,0.0364 -0.0792,0.0209 -0.18157,-0.28386 -0.21832,-1.0185 -0.41795,-1.1089 0.001,-5.1e-4 -0.0109,-0.0341 -0.008,-0.0299 -0.31429,-0.47371 -0.003,0.0345 -0.20996,-1.14782 -0.0476,-0.27218 -0.1334,-0.54228 -0.20006,-0.81346 -0.0237,-0.0238 -0.0617,-0.0446 -0.0694,-0.0709 -0.41033,-1.75668 0.0146,-0.49227 -0.3922,-1.61395 -0.67762,0.17672 -0.007,0.0125 -0.27533,-1.03404 -0.038,-0.14835 -0.0753,-0.54317 -0.14658,-0.54197 -0.0302,-0.41856 -0.071,-0.86387 -0.0615,-0.6338 -0.0655,-0.25817 -0.12295,-0.51703 -0.19808,-0.77452 -0.0383,-0.1319 0.033,-0.49292 -0.14261,-0.39326 -0.004,0.002 -0.006,0.006 -0.0101,0.009 3e-4,-0.0194 0.007,-0.0385 0.006,-0.0579 -0.0881,-1.20584 -0.0319,-0.99948 -0.34663,-1.72473 -0.005,0.0132 -0.006,0.0249 -0.0102,0.0379 -0.0191,-0.18281 -0.0579,-0.44836 -0.14262,-0.83641 -0.0889,-0.40872 -0.23798,-0.81347 -0.37635,-1.21869 -0.033,-0.0965 0.0939,0.38882 0.0594,0.29245 -0.11499,-0.32321 -0.20263,-0.64875 -0.30306,-0.97316 -0.89561,-1.49261 -0.45886,-0.95224 -1.47571,-2.10501 -0.23274,-0.26389 -0.44458,-0.53279 -0.70715,-0.7895 -0.0895,-0.0878 -0.28294,-0.14587 -0.34466,-0.23955 -0.10848,-0.16454 -0.1641,-0.33642 -0.21987,-0.50803 -0.002,-1.20146 -0.52571,-1.71583 -1.45788,-2.83762 -0.009,-0.012 0.002,0.0505 -0.0101,0.0389 -0.18351,-0.19523 -0.34735,-0.39536 -0.517,-0.59387 0.29724,-0.12352 0.14515,-0.40172 0.12281,-0.60086 -0.0345,-0.30629 -0.21516,-0.60434 -0.32288,-0.90628 -0.21597,-0.60604 -0.55817,-0.86051 -0.97654,-0.88632 -0.0575,-0.10572 -0.15647,-0.33264 -0.21194,-0.42121 4.07265,-4.93693 0.27406,-8.64769 -5.49874,-8.92706 -0.0141,-0.0307 -0.0392,-0.061 -0.0515,-0.0918 -0.11186,-0.0216 -0.39361,-0.0126 -0.33674,-0.0659 0.11458,-0.10773 0.51289,-0.0846 0.61404,-0.19562 0.0607,-0.0666 -0.29276,-0.0955 -0.28126,-0.16868 0.009,-0.0641 0.29199,-0.0438 0.31891,-0.1068 0.11842,-0.2938 -0.0899,-0.26625 -0.24563,-0.21061 0.1128,-0.0572 0.2889,-0.15128 0.62,-0.34334 -0.14074,-0.0852 -0.3226,-0.15762 -0.42192,-0.25651 -0.22147,-0.22091 0.21713,-0.2505 0.27732,-0.45913 0.0379,-0.13174 -0.0859,-0.26257 -0.10894,-0.39525 -0.15137,-0.93076 0.4108,0.42101 -0.50907,-1.28057 0.15034,-0.008 0.27406,-0.0322 0.21986,-0.0779 -0.0426,-0.0362 -0.11781,-0.0524 -0.20402,-0.0619 0.35263,-0.27346 -0.3733,-0.20878 -0.56849,-0.13175 -0.11982,-0.38793 -0.1742,-0.78063 -0.26346,-1.17079 -0.0593,-0.15372 -0.11203,-0.22866 -0.15845,-0.25451 0.0427,-0.14795 0.0921,-0.33516 0.15053,-0.58889 0.0179,-0.0764 -0.0597,0.27161 -0.16441,0.2156 -0.60965,-0.32665 -0.37615,-0.47112 -0.16637,-0.76654 -1.48961,0.21361 -1.28241,0.3114 -1.67379,-1.30253 0.60655,-0.41893 0.76605,-0.0775 0.76261,0.30342 -0.0718,0.011 -0.14261,0.0118 -0.20007,-0.002 -0.0261,0.19887 -0.0853,0.39962 -0.006,0.59288 0.0607,0.14675 0.20268,-0.23914 0.206,-0.59088 0.18002,-0.0276 0.35633,-0.1208 0.27929,-0.22457 -0.58099,-0.78187 -1.20512,-1.21523 -2.00459,-1.78761 2.0368,1.06488 0.63012,0.42118 0.51899,0.0818 -0.0435,-0.1325 0.59914,0.322 0.56848,0.11279 -0.0502,-0.35876 -0.28924,-0.70482 -0.43379,-1.057 0.0501,-0.007 0.0845,-0.0204 0.0812,-0.0439 0.0618,-0.0416 0.0434,-0.0676 -0.0139,-0.0828 -0.0136,-0.0945 -0.0263,-0.18411 -0.0416,-0.2605 0.52454,0.0473 0.49417,-0.14385 -0.47342,-0.78751 0.26969,0.19516 0.38977,0.36957 0.47342,0.78751 -0.30191,-0.0272 -1.06463,-0.2267 -1.65003,-0.36531 -0.008,-0.0188 -0.0126,-0.0362 -0.0218,-0.0559 0.0639,-0.36313 0.0248,-0.76959 -0.1446,-1.2147 0.003,-0.20884 0.0427,-0.3476 0.18421,-1.01509 0.0667,-0.31476 0.10507,-0.63244 0.21393,-0.9442 0.0552,-0.0473 0.1111,-0.0944 0.1664,-0.14174 0.004,0.0124 -0.005,0.0491 0.006,0.0369 0.0698,-0.0664 0.11522,-0.13826 0.17233,-0.2076 -1.09632,-0.002 -0.42519,-0.50982 -0.002,-0.97016 0.007,5.1e-4 0.017,-1.5e-4 0.0317,-0.005 0.17173,-0.0531 0.1915,-0.18031 0.24363,-0.27848 0.13687,-0.25798 0.212,-0.52395 0.31891,-0.78551 -0.0456,-0.47718 -0.11081,-0.95223 -0.10695,-1.43028 0,-0.0695 0.0372,-0.14105 0.008,-0.2086 -0.17858,-0.3722 -0.4177,-0.73656 -0.63188,-1.10391 -0.009,-0.005 -0.0151,-0.008 -0.0297,-0.017 -0.1594,-0.10225 -0.31547,-0.20601 -0.46945,-0.31041 -0.15237,-0.16778 -0.34033,-0.36573 -0.46153,-0.46512 -0.009,-0.007 -0.0225,-0.0172 -0.0357,-0.026 -0.002,-0.003 -0.005,-0.005 -0.008,-0.008 1.31667,0.69067 0.019,-0.1197 -0.30305,-0.32239 0.10165,0.10736 0.20212,0.21491 0.30305,0.32239 -0.003,-0.002 -0.008,-0.004 -0.0119,-0.006 0.007,0.005 0.0128,0.009 0.0198,0.014 0.13409,0.14294 0.27051,0.28565 0.40606,0.42818 -0.30942,-0.21272 -0.60694,-0.43023 -0.87749,-0.65576 -0.0378,-0.0315 -0.0123,-0.027 0.0396,-0.006 -0.36607,-0.19705 -0.83722,-0.45449 -1.47175,-0.80646 -0.13645,-0.0757 0.0517,2.5e-4 0.2991,0.1018 0.19474,0.14275 0.21317,0.13928 0.13469,0.0549 0.17383,0.071 0.35117,0.14307 0.46352,0.18066 0.0422,0.0141 -0.0429,-0.0464 -0.0812,-0.0639 -0.15306,-0.0696 -0.30951,-0.13771 -0.46747,-0.20461 -0.30428,-0.30261 -1.02511,-0.95948 -0.80025,-0.86036 -0.0547,-0.0487 -0.11065,-0.0963 -0.16638,-0.14473 -0.0432,-0.19964 -0.18059,-0.39427 -0.2694,-0.59088 -0.11066,-0.24419 -0.24536,-0.36492 -0.10696,-0.23455 -0.2235,-0.26583 -0.37299,-0.44797 -0.49124,-0.59488 l 0.006,-0.003 c 0.41158,0.38566 0.26383,0.19143 0.0534,-0.0399 0.1902,-0.17622 -0.0744,-0.48496 -1.03794,-1.0021 -0.0483,-0.026 -0.16573,-0.10269 -0.17034,-0.0968 -7e-4,0.001 -10e-4,0.004 0.004,0.008 0.5569,0.56041 0.89935,0.89323 1.1152,1.09692 0.009,0.0114 0.02,0.0248 0.0297,0.0369 -0.19568,0.1127 -0.66955,0.14443 -1.23405,0.15071 0.1312,-0.0521 0.26447,-0.10227 0.40012,-0.14971 -0.0146,-0.10928 -0.007,-0.21931 -0.0416,-0.32738 -0.19792,-0.60648 -0.77408,-1.23565 -1.25385,-1.80059 -0.0192,-0.0384 -0.0306,-0.0785 -0.0574,-0.11578 -0.1247,-0.1775 -0.29022,-0.34752 -0.40408,-0.527 -0.0805,-0.12697 -0.11429,-0.34124 -0.15252,-0.4691 -0.28658,-0.59762 -0.0528,-0.19434 -0.54274,-0.81846 -0.0502,-0.0645 -0.0604,-0.14237 -0.0871,-0.2096 -0.0241,-0.0618 -0.0494,-0.12384 -0.0752,-0.18565 -7e-5,-0.0286 0.004,-0.0574 -0.004,-0.0858 -0.0444,-0.2237 -0.0675,-0.20697 -0.0832,-0.39625 -0.008,-0.10026 0.0101,-0.20139 0.0218,-0.30143 -0.14528,-1.05248 0.0212,0.0641 -0.10101,-0.61284 -0.0327,-0.17899 -0.056,-0.3608 -0.14261,-0.53598 -0.0463,-0.094 -0.10154,-0.18626 -0.15254,-0.27947 0.0178,0.0201 0.055,0.0827 0.0515,0.0609 -0.0105,-0.0687 -0.0541,-0.1354 -0.0733,-0.20361 -0.0115,-0.029 -0.008,-0.0589 -0.0158,-0.0878 -0.0364,-0.11171 -0.0677,-0.22424 -0.12677,-0.33336 -0.0495,-0.0914 -0.10679,-0.18172 -0.16045,-0.27249 -0.13924,-0.15196 -0.15421,-0.31699 -0.22779,-0.47709 -0.11806,-0.25831 -0.14562,-0.15331 -0.11489,-0.25452 -0.20743,-0.59829 0.13866,0.38101 -0.18026,-0.43617 -0.0104,-0.0247 -0.004,-0.0498 -0.0119,-0.0749 -0.0175,-0.0737 -0.0364,-0.14737 -0.0594,-0.22057 -0.0928,-0.28838 -0.1038,-0.29116 -0.23373,-0.57491 -0.28569,-0.40405 -0.34881,-0.83428 -0.57049,-1.24665 -0.0744,-0.13914 -0.1689,-0.27543 -0.25353,-0.41321 -0.19932,-0.38892 -0.42937,-0.77575 -0.69923,-1.15382 -0.17116,-0.23986 -0.41648,-0.46717 -0.47539,-0.72263 -0.19061,-0.29744 -0.16148,-0.61205 -0.25949,-0.91726 -0.0338,-0.10411 -0.0817,-0.20688 -0.12281,-0.31041 -0.008,-0.0442 -0.0124,-0.0887 -0.0277,-0.13275 -0.17127,-0.4844 -0.42533,-0.9605 -0.62198,-1.44225 -0.11778,-0.32265 -0.22685,-0.64831 -0.38824,-0.96617 -0.0667,-0.13178 -0.15413,-0.26103 -0.22581,-0.39226 -0.13349,-0.2437 -0.11928,-0.23776 -0.20402,-0.4771 -0.098,-0.37103 -0.24683,-0.74023 -0.42192,-1.10391 -0.0767,-0.15884 -0.17182,-0.31572 -0.25156,-0.4741 -0.13723,-0.27364 -0.19814,-0.43294 -0.31495,-0.71165 -0.204,-0.55663 -0.47775,-1.10561 -0.7131,-1.65885 -0.0146,-0.0343 -0.0222,-0.0567 -0.0357,-0.0878 1.08516,-0.55152 1.54459,-1.62526 0.49917,-2.99932 -0.13854,-0.18208 -0.4211,-0.5205 -0.49124,-0.72761 -0.004,-0.0135 0.0698,-0.005 0.0694,-0.019 -0.004,-0.11369 -0.0429,-0.22614 -0.0812,-0.33836 -0.1368,-0.41532 -0.16458,-0.41009 -0.41795,-0.81346 0.0859,-0.0527 0.0246,-0.0105 -0.0455,-0.17467 -0.0462,-0.10737 -0.11405,-0.21284 -0.14857,-0.32139 -0.0115,-0.0434 0.0157,-0.0879 0.0119,-0.13175 -0.0494,-0.37603 -0.11746,-0.54945 -0.22977,-0.92923 -0.0388,-0.35012 -0.28364,-0.64338 -0.42786,-0.96118 -0.0199,-0.0444 0.0985,0.17334 0.095,0.12776 -0.005,-0.10747 -0.0705,-0.21136 -0.10498,-0.3174 -0.0684,-0.57847 -0.54822,-1.1121 -0.79431,-1.67183 -0.0437,-0.10243 -0.0782,-0.20602 -0.13073,-0.30742 -0.44309,-0.85791 -0.0984,-0.12175 -0.61207,-0.96716 -0.26306,-0.43304 -0.39057,-0.91842 -0.53086,-1.36442 -0.28342,-1.00433 -0.77193,-1.99085 -1.08549,-2.99232 -0.16768,-0.53561 -0.27817,-1.07556 -0.42191,-1.61294 -0.19845,-0.99499 -0.66411,-1.97884 -1.34299,-2.91847 -0.22155,-0.30666 -0.39305,-0.50975 -0.5883,-0.72762 0.14945,-0.12523 -0.0747,-0.38494 -0.85968,-0.85438 -0.0619,-0.037 -0.0951,-0.0571 -0.103,-0.0599 z m 22.18512,46.65652 c 0.0303,0.0209 0.0606,0.0421 0.0912,0.0629 0.18362,0.2023 0.31517,0.35983 0.19213,0.23355 -0.0958,-0.0984 -0.18917,-0.19758 -0.28326,-0.29643 z m 4.93025,16.03758 c -0.0199,0.0154 -0.0372,0.0302 -0.0654,0.0479 0.0206,0.0385 0.0302,0.0561 0.0495,0.0918 -0.12166,0.006 -0.26145,0.002 -0.34268,-0.012 -0.12806,-0.0215 -0.16303,-0.11122 -0.18621,-0.18066 0.13554,0.0467 0.36721,0.0333 0.54473,0.0529 z m -6.76646,29.28247 c -0.005,-0.0343 -0.0122,-0.0685 -0.0179,-0.1028 0.0111,-0.0371 0.007,-0.10804 0.0218,0.0998 -10e-4,0.004 -0.003,0.001 -0.004,0.003 z m -0.0179,-0.1028 c -0.003,0.0115 -0.007,0.0136 -0.0158,0.009 -0.0244,-0.14229 -0.0449,-0.3756 -0.0297,-0.29145 0.0171,0.0941 0.03,0.18827 0.0455,0.28247 z m -4.08245,-34.31792 c -0.002,-0.005 -0.002,-0.0115 -0.004,-0.0159 0.004,0.006 0.008,0.013 0.0119,0.0179 -0.006,-0.002 -0.002,9e-5 -0.008,-0.002 z m -13.99644,-37.47693 c 0.11474,0.11149 0.23353,0.21599 0.35655,0.3134 -0.13386,-0.0361 -0.2522,-0.14367 -0.35655,-0.3134 z m 12.75842,20.26756 c -1.9e-4,-0.005 0.12437,0.1189 0.17233,0.16369 -0.006,0.002 -0.0122,0.003 -0.0178,0.004 -0.0509,-0.0522 -0.1004,-0.10449 -0.14658,-0.1577 -0.006,-0.007 -0.008,-0.009 -0.008,-0.01 z m -4.17556,1.92036 c -0.0232,0.0256 -0.0459,0.0513 -0.0693,0.0769 -0.0222,0.0243 0.0239,-0.0565 0.0634,-0.0739 z m 8.01835,1.62093 c 0.003,-0.005 0.1243,0.0773 0.1545,0.11079 0.0212,0.0232 0.0433,0.0582 0.0694,0.0958 -0.0742,-0.0655 -0.14807,-0.13187 -0.2179,-0.19862 -0.005,-0.005 -0.006,-0.007 -0.006,-0.008 z m 0.40606,0.9472 c -0.007,-0.0109 0.4383,0.17131 0.60614,0.23455 -0.008,-0.008 -0.0215,-0.0334 -0.0139,-0.0249 0.0642,0.0498 0.11193,0.0862 0.16243,0.12477 -0.2451,-0.10328 -0.49051,-0.20696 -0.72299,-0.3174 -0.0218,-0.0104 -0.0316,-0.0154 -0.0316,-0.017 z m 3.02668,1.77962 c 0.10367,0.0841 0.3594,0.29359 0.46549,0.39126 -0.006,-0.0103 -0.0116,-0.0206 -0.0178,-0.0309 -0.50305,-0.40308 -0.55134,-0.44439 -0.44767,-0.36032 z m -0.70319,6.23019 c 0.006,0.0343 0.0754,0.0907 0.0476,0.11279 -0.0157,-0.0377 -0.0331,-0.0751 -0.0476,-0.11279 z m -4.57568,5.47861 c 0.0267,-0.0108 0.23238,0.12681 0.22582,0.18665 -0.005,0.0409 -0.0338,0.0786 -0.0673,0.11578 -0.0485,-0.091 -0.0995,-0.1866 -0.15649,-0.28746 -0.005,-0.008 -0.006,-0.0134 -0.002,-0.015 z m 0.47936,0.95219 c 0.16022,0.0964 0.34454,0.20982 0.59028,0.3723 -0.30787,0.49934 -0.2279,0.42565 -0.59028,-0.3723 z m 2.54733,8.2284 c 0.0793,1e-4 0.21522,0.0382 0.18224,0.0659 -0.0713,0.0599 -0.14586,0.0759 -0.21988,0.0689 -0.0208,-0.045 -0.0303,-0.0878 -0.0139,-0.12077 0.005,-0.0104 0.025,-0.014 0.0515,-0.0139 z m 13.48934,9.42413 c 0.008,0.004 0.0158,0.009 0.0237,0.013 0.009,0.0205 0.0309,0.0691 0.0218,0.0798 -0.0191,-0.0399 -0.0272,-0.0544 -0.0455,-0.0928 z m 0.42787,1.27957 c 0.005,0.0286 0.0183,0.0342 0.0198,0.0659 0.001,0.0202 -0.0266,-0.0249 -0.0515,-0.0549 0.0106,-0.004 0.0211,-0.007 0.0317,-0.011 z m -17.55993,1.86247 c 0.0334,0.005 0.0679,0.0322 0.10499,0.0878 0.13126,0.19732 0.24954,0.39658 0.35852,0.59687 -0.28059,-0.11473 -0.49574,-0.2025 -0.69725,-0.28246 0.0608,-0.23759 0.13895,-0.41478 0.23374,-0.40224 z m 2.89992,7.43789 c 0.13435,0.15419 0.30621,0.34849 0.36644,0.42121 0.10392,0.12539 -0.22478,-0.24669 -0.33674,-0.3703 -0.0101,-0.017 -0.0142,-0.023 -0.0297,-0.0509 z m 0.77449,2.72084 c 0.005,0.003 0.0145,0.009 0.0237,0.015 0.009,0.0205 0.026,0.061 0.0337,0.0779 -0.0593,-0.0873 -0.0688,-0.0997 -0.0574,-0.0928 z m 24.73047,12.92949 c 0.0595,0.0809 0.28538,0.35943 0.1644,0.42718 -0.0502,-0.14354 -0.10672,-0.28509 -0.1644,-0.42718 z m 5.12239,14.79893 c 0.0478,0.0884 0.0951,0.17711 0.14261,0.2655 0.0441,0.0823 -0.0963,-0.16348 -0.1347,-0.24654 -0.003,-0.006 -0.005,-0.0127 -0.008,-0.019 z m -55.8867,133.7274 c -1.09135,0.34778 -2.26677,0.64796 -3.44859,0.94421 -0.36618,-0.0187 -0.74444,-0.0334 -1.13303,-0.0419 -0.63185,-0.0139 -1.2638,-0.0274 -1.89565,-0.0409 -2.48221,-0.006 -3.76789,-0.0405 -4.43306,0.2096 -8.81852,-0.16021 -17.62737,-0.48083 -26.45377,-0.46512 -0.68605,10e-4 -1.37179,0.005 -2.05807,0.01 -5.16463,0.0417 -6.52515,0.12396 -11.01729,0.30741 -0.52491,0.0321 -1.04976,0.0637 -1.57475,0.0958 -13.95742,0.85088 -12.17841,8.02467 1.76096,7.10153 0.3271,-0.0216 0.65318,-0.0432 0.98049,-0.0649 3.96466,-0.16838 5.16957,-0.24291 9.78919,-0.28346 9.3883,-0.0823 18.75414,0.28537 28.13153,0.45414 1.85863,0.53444 4.32538,0.8799 7.50729,0.83241 0.94122,-0.014 1.8814,-0.0477 2.82266,-0.0549 0.28418,0.0703 0.57393,0.13596 0.86956,0.19864 2.3466,0.21217 5.11028,0.63554 7.40232,0.32738 h 0.002 c 0.0901,0.002 0.19795,-0.0151 0.26939,-0.0409 0.3927,-0.0641 0.76988,-0.15163 1.12709,-0.26749 0.1308,0.0409 0.308,0.0466 0.4635,0.0679 0.0979,0.0132 0.17436,0.0238 0.25356,0.0339 6.4e-4,4.8e-4 0.003,5.1e-4 0.004,10e-4 0.14631,0.11137 0.38721,0.20783 0.721,0.27148 l 0.002,0.001 c 0.0523,0.0154 0.11296,0.0231 0.16837,0.0349 0.0308,0.007 0.0624,0.0133 0.0931,0.02 0.0925,0.0622 0.17068,0.13147 0.29316,0.17766 0.29846,0.11265 0.63418,0.29955 0.99634,0.25551 0.61107,-0.0744 1.11217,-0.32145 1.52128,-0.56193 0.14293,-0.0839 -0.002,-0.22089 -0.002,-0.33137 v -0.001 c -8.7e-4,-0.35338 -0.13579,-0.38942 -0.34467,-0.28646 -0.0168,-0.0187 -0.0106,-0.0372 -0.0316,-0.0559 0.002,-0.0419 9.6e-4,-0.0817 -0.004,-0.12077 0.1361,-0.16939 0.22052,-0.35702 0.23176,-0.53399 0.0127,-0.20558 -0.29007,-0.38914 -0.52887,-0.55594 -0.3814,-0.2666 -0.78205,-0.40135 -1.18255,-0.55994 0.11492,-0.22198 0.21597,-0.46134 0.30109,-0.72064 0.36953,-1.12593 -1.31829,-2.11721 -3.06828,-3.01528 0.0778,-0.24945 0.1538,-0.49305 0.24165,-0.76654 0.15865,-0.49374 -1.44051,-0.6934 -2.24822,-0.98414 -0.67693,-0.24367 -1.44019,-0.42095 -2.18287,-0.60984 -1.11988,-0.28488 -3.12912,-0.71533 -4.3459,-0.98114 z m 1.8679,0.97814 c 0.0312,-0.005 0.34476,0.15704 0.69725,0.39326 -0.0309,-0.002 -0.0622,-0.003 -0.0931,-0.004 -0.0167,-0.01 -0.0331,-0.0197 -0.0495,-0.0289 -0.43218,-0.25072 -0.57894,-0.35641 -0.55464,-0.36032 z m 0.74677,0.42919 c 0.0833,0.0569 0.16634,0.11629 0.24958,0.17966 -0.10441,-0.0574 -0.20674,-0.11534 -0.309,-0.17367 0.0205,-0.002 0.0387,-0.004 0.0594,-0.006 z m 10.1081,7.40895 c -0.076,0.0738 -0.16385,0.14366 -0.27731,0.20162 0.002,-0.01 0.002,-0.02 0.004,-0.0299 0.0257,-0.0223 0.0497,-0.0449 0.0733,-0.0679 0.0656,-0.0354 0.13172,-0.0706 0.20006,-0.10381 z m -0.27731,0.20162 c -10e-4,0.005 -0.003,0.0111 -0.004,0.0159 -5.7e-4,-0.004 -8.7e-4,-0.009 -0.002,-0.013 z m -10.18337,0.1058 c 0.0563,0.005 0.11213,0.009 0.16838,0.014 0.0629,0.005 0.0249,0.1194 -0.0101,0.0938 -0.0515,-0.0362 -0.10399,-0.072 -0.15846,-0.10779 z m 9.37123,0.55395 c -0.0862,0.0395 -0.1678,0.0496 -0.25155,0.0669 0.0263,-0.022 0.05,-0.0448 0.0752,-0.0669 0.0609,3.8e-4 0.12095,2.9e-4 0.17628,0 z m -0.25155,0.0669 c -0.004,0.004 -0.007,0.007 -0.0119,0.011 -0.003,0.003 -0.0101,-0.005 -0.0139,-0.005 0.008,-0.002 0.0167,-0.004 0.0258,-0.006 z m -0.0258,0.006 c -0.0514,0.009 -0.10287,0.0281 -0.15254,0.026 0.0264,-0.0164 0.0549,-0.0327 0.0812,-0.0489 0.0246,0.0107 0.0515,0.0248 0.0713,0.0229 z" /></clipPath><linearGradient
       inkscape:collect="always"
       xlink:href="#linearGradient7547"
       id="linearGradient7549"
       x1="-33.823753"
       y1="32.737621"
       x2="248.05119"
       y2="-8.8906231"
       gradientUnits="userSpaceOnUse" /><linearGradient
       inkscape:collect="always"
       xlink:href="#linearGradient7555"
       id="linearGradient7557"
       x1="1190.587"
       y1="624.65771"
       x2="-702.65271"
       y2="-70.195869"
       gradientUnits="userSpaceOnUse" /></defs><g
     inkscape:label="Layer 1"
     id="layer1"
     transform="translate(-81.215568,-118.02852)"
     inkscape:groupmode="layer"><g
       inkscape:label="Layer 1"
       id="layer1-2"
       transform="matrix(2.7987805,0,0,5.5543778,59.407428,-257.46606)"
       style="fill-opacity:1;stroke:#800000;fill:#cc0000;stroke-opacity:1;stroke-width:1.00001134;stroke-dasharray:none;stroke-miterlimit:0"><g
         fill="none"
         fill-rule="evenodd"
         id="g20"
         transform="matrix(0.74666993,0,0,1.5681814,9.5882248,68.48934)"
         style="fill:#cc0000;fill-opacity:1;stroke:url(#linear1111);stroke-width:0.92414995;stroke-dasharray:none;stroke-miterlimit:0"><path
           id="use18"
           style="fill:#cc0000;fill-opacity:1;stroke:url(#linearGradient7549);stroke-width:0.97985664;stroke-dasharray:none;stroke-opacity:1;opacity:1;stroke-miterlimit:0"
           d="M 46.951872,-5.334489e-4 C 32.716956,-5.334489e-4 28.848559,1.6847309 21.088007,9.0721865 13.555049,16.487144 0.00295749,30.000255 0.00295749,30.000255 H 13.044607 c 1.887274,-1.836649 4.567886,-4.44239 7.194869,-6.984355 2.718063,-2.630099 5.378715,-5.191922 7.043804,-6.762935 h 6.79e-4 c 4.59997,-4.341256 10.719105,-5.034401 20.721045,-5.034401 H 87.548723 L 98.767873,-5.334489e-4 Z M 53.256347,13.796751 c -11.067928,0 -12.715874,0.0086 -17.303247,4.595802 -4.587373,4.587183 -11.636057,11.608025 -11.636057,11.608025 h 11.417716 l 3.753523,-3.75317 c 2.467488,-2.467482 3.739559,-2.723141 8.920729,-2.723141 H 75.24317 l 10.126137,-9.727192 6.79e-4,-3.24e-4 z"
           clip-path="url(#clipPath1909)"
           transform="matrix(0.8895283,0,0,1.0000001,3.3084499e-4,-1.0458933e-6)"
           sodipodi:nodetypes="scccsccsccsszcccscccs" /><mask
           fill="#ffffff"
           id="mask16"
           style="fill-opacity:1;stroke:url(#linearGradient1111)" /></g><g
         id="g2024"
         transform="matrix(-0.09145072,0,0,0.09145072,108.28474,68.513585)"
         style="fill:#cc0000;fill-opacity:1;stroke:url(#linear1111);stroke-width:10.93497505;stroke-dasharray:none;stroke-miterlimit:0"><g
           id="g1967"
           style="display:inline;fill:#cc0000;fill-opacity:1;stroke:url(#linear1111);stroke-width:10.93497505;stroke-dasharray:none;stroke-miterlimit:0">
	<g
   id="g1965"
   style="fill:#cc0000;fill-opacity:1;stroke:url(#linear1111);stroke-width:10.93497505;stroke-dasharray:none;stroke-miterlimit:0">
		<g
   id="g1963"
   style="fill:#cc0000;fill-opacity:1;stroke:url(#linear1111);stroke-width:10.93497505;stroke-dasharray:none;stroke-miterlimit:0">
			<rect
   x="204.35571"
   y="132.97144"
   width="44.290997"
   height="25.602148"
   id="rect1959"
   style="fill:none;fill-opacity:1;stroke:url(#linear1123);stroke-width:10.93497505;stroke-dasharray:none;stroke-miterlimit:0" />
			<path
   d="m 506.79412,435.17201 c -0.0591,-0.085 -0.11823,-0.17098 -0.1785,-0.25597 L 347.50105,215.48829 C 322.79381,181.40991 309.11419,142.47603 307.39294,102.41628 h 9.54513 c 2.96728,0 5.76649,-1.15188 7.64538,-3.122671 1.87889,-1.97979 2.64042,-4.573515 2.04696,-7.082249 -5.19158,-22.440622 -47.7004,-92.18423055 -83.94062,-92.18423055 -5.45933,0 -9.89055,3.81359585 -9.89055,8.53209575 l 0,60.9059578 H 127.25565 l 0,-60.9059578 c 0,-2.9176908 -1.73052,-5.6314032 -4.57957,-7.2012368 -2.86876,-1.56183447 -6.4492,-1.76581285 -9.50573,-0.52094478 C 83.161415,12.95276 59.773465,42.355643 59.773465,85.351087 c 0,36.758103 15.301194,60.733563 50.068205,77.986733 59.13811,28.25101 108.40422,67.9178 142.45955,114.68485 l 83.37012,114.49686 h 60.39457 c 5.45933,0 9.89055,3.8136 9.89055,8.5321 0,4.7185 -4.43122,8.53209 -9.89055,8.53209 h -47.9714 l 12.42316,17.0652 h 65.22104 c 5.45933,0 9.89054,3.81359 9.89054,8.53209 0,4.7185 -4.43121,8.5321 -9.89054,8.5321 h -52.78744 l 31.05791,42.65348 c 7.9224,11.84274 20.72111,20.31584 36.03274,23.85647 5.11392,1.18587 10.30666,1.76581 15.45999,1.76581 10.27652,0 20.43482,-2.32975 29.57427,-6.88527 28.3352,-14.1115 38.07738,-45.48618 21.71794,-69.93159 z M 267.48303,162.14295 c 0,4.7185 -4.43122,8.53209 -9.89055,8.53209 h -59.34559 c -5.45933,0 -9.89054,-3.81359 -9.89054,-8.53209 v -34.12938 c 0,-4.7185 4.43121,-8.5321 9.89054,-8.5321 h 59.34559 c 5.45933,0 9.89055,3.8136 9.89055,8.5321 z"
   id="path1961"
   style="opacity:1;fill:#cc0000;fill-opacity:1;stroke:url(#linearGradient7557);stroke-width:10.93497505;stroke-miterlimit:0;stroke-dasharray:none;stroke-opacity:1"
   clip-path="url(#clipPath1919)"
   sodipodi:nodetypes="ccccsccssccsccscccsssccssscccsccsssssssss" />
		</g>
	</g>
</g><g
           id="g1969"
           style="display:inline;fill:#cc0000;fill-opacity:1;stroke:url(#linear1111);stroke-width:10.93497505;stroke-dasharray:none;stroke-miterlimit:0">
</g><g
           id="g1971"
           style="fill:#cc0000;fill-opacity:1;stroke:url(#linear1111);stroke-width:10.93497505;stroke-dasharray:none;stroke-miterlimit:0"
           inkscape:label="g1971">
</g><g
           id="g1973"
           style="fill:#cc0000;fill-opacity:1;stroke:url(#linear1111);stroke-width:10.93497505;stroke-dasharray:none;stroke-miterlimit:0">
</g><g
           id="g1975"
           style="fill:#cc0000;fill-opacity:1;stroke:url(#linear1111);stroke-width:10.93497505;stroke-dasharray:none;stroke-miterlimit:0">
</g><g
           id="g1977"
           style="fill:#cc0000;fill-opacity:1;stroke:url(#linear1111);stroke-width:10.93497505;stroke-dasharray:none;stroke-miterlimit:0">
</g><g
           id="g1979"
           style="fill:#cc0000;fill-opacity:1;stroke:url(#linear1111);stroke-width:10.93497505;stroke-dasharray:none;stroke-miterlimit:0">
</g><g
           id="g1981"
           style="fill:#cc0000;fill-opacity:1;stroke:url(#linear1111);stroke-width:10.93497505;stroke-dasharray:none;stroke-miterlimit:0">
</g><g
           id="g1983"
           style="fill:#cc0000;fill-opacity:1;stroke:url(#linear1111);stroke-width:10.93497505;stroke-dasharray:none;stroke-miterlimit:0">
</g><g
           id="g1985"
           style="fill:#cc0000;fill-opacity:1;stroke:url(#linear1111);stroke-width:10.93497505;stroke-dasharray:none;stroke-miterlimit:0">
</g><g
           id="g1987"
           style="display:inline;fill:#cc0000;fill-opacity:1;stroke:url(#linear1111);stroke-width:10.93497505;stroke-dasharray:none;stroke-miterlimit:0">
</g><g
           id="g1989"
           style="fill:#cc0000;fill-opacity:1;stroke:url(#linear1111);stroke-width:10.93497505;stroke-dasharray:none;stroke-miterlimit:0">
</g><g
           id="g1991"
           style="fill:#cc0000;fill-opacity:1;stroke:url(#linear1111);stroke-width:10.93497505;stroke-dasharray:none;stroke-miterlimit:0">
</g><g
           id="g1993"
           style="fill:#cc0000;fill-opacity:1;stroke:url(#linear1111);stroke-width:10.93497505;stroke-dasharray:none;stroke-miterlimit:0">
</g><g
           id="g1995"
           style="fill:#cc0000;fill-opacity:1;stroke:url(#linear1111);stroke-width:10.93497505;stroke-dasharray:none;stroke-miterlimit:0">
</g><g
           id="g1997"
           style="display:inline;fill:#cc0000;fill-opacity:1;stroke:url(#linear1111);stroke-width:10.93497505;stroke-dasharray:none;stroke-miterlimit:0">
</g></g></g></g></svg>
