<?xml version="1.0" encoding="UTF-8" standalone="no"?>
<!-- Created with Inkscape (http://www.inkscape.org/) -->

<svg
   width="1024"
   height="1024"
   viewBox="0 0 270.93333 270.93333"
   version="1.1"
   id="svg12736"
   xml:space="preserve"
   sodipodi:docname="f1mh_icon_v4.svg"
   inkscape:version="1.2.1 (9c6d41e410, 2022-07-14)"
   xmlns:inkscape="http://www.inkscape.org/namespaces/inkscape"
   xmlns:sodipodi="http://sodipodi.sourceforge.net/DTD/sodipodi-0.dtd"
   xmlns:xlink="http://www.w3.org/1999/xlink"
   xmlns="http://www.w3.org/2000/svg"
   xmlns:svg="http://www.w3.org/2000/svg"><sodipodi:namedview
     id="namedview12738"
     pagecolor="#505050"
     bordercolor="#eeeeee"
     borderopacity="1"
     inkscape:showpageshadow="0"
     inkscape:pageopacity="0"
     inkscape:pagecheckerboard="0"
     inkscape:deskcolor="#505050"
     inkscape:document-units="mm"
     showgrid="false"
     inkscape:zoom="0.35355339"
     inkscape:cx="-172.53405"
     inkscape:cy="325.26912"
     inkscape:window-width="2560"
     inkscape:window-height="1387"
     inkscape:window-x="1912"
     inkscape:window-y="-8"
     inkscape:window-maximized="1"
     inkscape:current-layer="layer1" /><defs
     id="defs12733"><linearGradient
       inkscape:collect="always"
       id="linearGradient14808"><stop
         style="stop-color:#550000;stop-opacity:1;"
         offset="0"
         id="stop14804" /><stop
         style="stop-color:#000000;stop-opacity:0;"
         offset="0.32391295"
         id="stop14806" /></linearGradient><linearGradient
       inkscape:collect="always"
       id="linearGradient14767"><stop
         style="stop-color:#550000;stop-opacity:1;"
         offset="0"
         id="stop14763" /><stop
         style="stop-color:#000000;stop-opacity:0;"
         offset="0.73888886"
         id="stop14765" /></linearGradient><path
       id="a"
       d="m101.09 30h0.625v-2.8931h0.010625l1.0394 2.8931h0.54062l1.0394-2.8931h0.010625v2.8931h0.625v-3.7488h-0.91375l-1.0081 2.935h-0.010625l-1.0338-2.935h-0.92438v3.7488zm-3.4594-3.1819h1.1862v3.1819h0.65625v-3.1819h1.1919v-0.56688h-3.0344v0.56688zm-7.6275 3.1819 30-30h-18.056l-29.999 30h18.056zm-4.3012-16.935h-36.317c-11.068 0-13.005 0.58688-17.746 5.3275-4.4338 4.4338-11.636 11.608-11.636 11.608h15.732l3.7531-3.7531c2.4675-2.4675 3.74-2.7231 8.9212-2.7231h26.834l10.458-10.459zm-54.547 3.1881c-3.2744 3.0894-10.399 10.01-14.239 13.747h-16.913s13.552-13.513 21.085-20.928c7.7606-7.3875 11.629-9.0725 25.864-9.0725h51.816l-11.219 11.219h-39.544c-10.002 0-12.249 0.69312-16.849 5.0344z" /><linearGradient
       inkscape:collect="always"
       xlink:href="#linearGradient14767"
       id="linearGradient14769"
       x1="-105.6363"
       y1="35.774971"
       x2="384.61252"
       y2="-25.614"
       gradientUnits="userSpaceOnUse" /><linearGradient
       inkscape:collect="always"
       xlink:href="#linearGradient14808"
       id="linearGradient14802"
       gradientUnits="userSpaceOnUse"
       x1="-37.296989"
       y1="27.042173"
       x2="384.61252"
       y2="-25.614"
       gradientTransform="matrix(1.8618316,0,0,0.99146787,0.10121188,0.12798229)" /></defs><g
     inkscape:label="Layer 1"
     inkscape:groupmode="layer"
     id="layer1"
     style="display:inline"><g
       fill="none"
       fill-rule="evenodd"
       id="g12751"
       transform="matrix(1.3985101,0,0,8.5356069,8.1418482,6.9289776)"
       style="fill:#e10600;fill-opacity:1;stroke:url(#linearGradient14769);stroke-width:0.999883;stroke-dasharray:none"><mask
         fill="#ffffff"
         id="mask12747"
         style="fill-opacity:1;stroke:url(#linearGradient14769)"><use
           xlink:href="#a"
           id="use12745"
           style="fill-opacity:1;stroke:url(#linearGradient14769)" /></mask><path
         id="use12749"
         d="m 159.66373,14.243148 h -50.078 c -20.606752,0 -32.800703,-0.579765 -41.627649,4.120407 -8.254988,4.395971 -21.664273,11.508959 -21.664273,11.508959 h 20.339774 l 6.987641,-3.721078 C 78.215294,23.70499 80.584473,23.45157 90.230997,23.45157 H 140.19139 L 159.4782,14.35596 Z M 51.260747,16.242409 C 45.164366,19.30545 31.899558,26.167002 24.750125,29.872118 H 0.1066112 c 0,0 25.2315428,-13.397706 39.2567228,-20.7494399 C 53.812265,1.798209 61.014575,0.1275857 87.517748,0.1275857 h 96.472682 l -20.8879,9.8393632 H 89.478258 c -18.622041,0 -29.651223,1.9711211 -38.21565,6.2753611 z"
         style="fill:#e10600;fill-opacity:1;stroke:url(#linearGradient14802);stroke-width:1.55123;stroke-dasharray:none"
         sodipodi:nodetypes="cscccsscccccccsccscc" /></g></g></svg>
